<svg width="160" height="46" viewBox="0 0 160 46" fill="none" xmlns="http://www.w3.org/2000/svg">
<path d="M43.6003 18.9195C42.7967 18.1148 41.778 17.559 40.6665 17.3189C39.5549 17.0787 38.3977 17.1643 37.3335 17.5655C36.2694 17.9666 35.3437 18.6663 34.6673 19.5805C33.9909 20.4947 33.5926 21.5846 33.5203 22.7195C33.3216 25.6298 32.0757 28.3697 30.0131 30.4323C27.9504 32.495 25.2106 33.7409 22.3003 33.9395C21.1633 34.011 20.0711 34.4091 19.1548 35.0859C18.2384 35.7627 17.5368 36.6896 17.1341 37.7553C16.7314 38.8209 16.6448 39.9801 16.8846 41.0938C17.1243 42.2075 17.6803 43.2284 18.4859 44.0339C19.2914 44.8395 20.3123 45.3955 21.426 45.6352C22.5397 45.875 23.6989 45.7883 24.7645 45.3857C25.8302 44.983 26.7571 44.2814 27.4339 43.365C28.1107 42.4487 28.5088 41.3565 28.5803 40.2195C28.7789 37.3093 30.0248 34.5694 32.0875 32.5067C34.1501 30.4441 36.89 29.1982 39.8003 28.9995C40.9352 28.9272 42.0251 28.5289 42.9393 27.8525C43.8535 27.1761 44.5532 26.2504 44.9543 25.1863C45.3555 24.1221 45.4411 22.9649 45.2009 21.8533C44.9608 20.7418 44.405 19.7231 43.6003 18.9195Z" fill="#04B446"/>
<path d="M10.2201 27.3796C11.2377 26.3651 11.8495 25.0136 11.9401 23.5796C12.1387 20.6693 13.3846 17.9294 15.4473 15.8668C17.5099 13.8041 20.2498 12.5582 23.1601 12.3596C24.297 12.2881 25.3892 11.89 26.3056 11.2132C27.2219 10.5364 27.9235 9.6095 28.3262 8.54384C28.7289 7.47818 28.8156 6.31896 28.5758 5.20527C28.336 4.09158 27.78 3.07073 26.9745 2.26518C26.1689 1.45964 25.1481 0.903627 24.0344 0.663858C22.9207 0.424088 21.7615 0.510745 20.6958 0.91343C19.6301 1.31612 18.7033 2.01773 18.0265 2.93408C17.3496 3.85044 16.9516 4.94262 16.8801 6.07958C16.6791 8.99072 15.4311 11.7307 13.3668 13.7932C11.3025 15.8557 8.56139 17.1012 5.65007 17.2996C4.69256 17.3577 3.76352 17.6477 2.94292 18.1445C2.12232 18.6413 1.43473 19.3301 0.939341 20.1515C0.443957 20.973 0.155621 21.9025 0.099139 22.8601C0.0426571 23.8177 0.219726 24.7747 0.615107 25.6487C1.01049 26.5227 1.61233 27.2876 2.36885 27.8774C3.12536 28.4672 4.01388 28.8644 4.95791 29.0347C5.90195 29.205 6.87323 29.1433 7.78815 28.855C8.70307 28.5667 9.53422 28.0603 10.2101 27.3796" fill="#04B446"/>
<path d="M34.2796 34.7003C33.7765 35.202 33.4336 35.8417 33.2943 36.5383C33.155 37.235 33.2255 37.9573 33.4969 38.6139C33.7684 39.2704 34.2285 39.8317 34.8191 40.2266C35.4097 40.6215 36.1042 40.8323 36.8146 40.8323C37.5251 40.8323 38.2196 40.6215 38.8101 40.2266C39.4007 39.8317 39.8609 39.2704 40.1323 38.6139C40.4037 37.9573 40.4742 37.235 40.3349 36.5383C40.1956 35.8417 39.8527 35.202 39.3496 34.7003C38.6766 34.0292 37.765 33.6523 36.8146 33.6523C35.8642 33.6523 34.9526 34.0292 34.2796 34.7003Z" fill="#04B446"/>
<path d="M11.2101 11.6309C11.7117 11.1287 12.0532 10.489 12.1914 9.79273C12.3296 9.09646 12.2582 8.37484 11.9864 7.7191C11.7146 7.06336 11.2544 6.50292 10.6641 6.10863C10.0739 5.71435 9.37993 5.50391 8.67008 5.50391C7.96022 5.50391 7.2663 5.71435 6.67602 6.10863C6.08574 6.50292 5.6256 7.06336 5.35375 7.7191C5.08191 8.37484 5.01057 9.09646 5.14875 9.79273C5.28693 10.489 5.62843 11.1287 6.13008 11.6309C6.46349 11.9647 6.85944 12.2296 7.29528 12.4102C7.73111 12.5909 8.19828 12.6839 8.67008 12.6839C9.14188 12.6839 9.60905 12.5909 10.0449 12.4102C10.4807 12.2296 10.8767 11.9647 11.2101 11.6309Z" fill="#04B446"/>
<path d="M22.9999 27.8507C23.9011 27.7911 24.766 27.4731 25.4912 26.9347C26.2164 26.3964 26.7711 25.6605 27.089 24.8152C27.4068 23.9698 27.4744 23.0508 27.2836 22.168C27.0928 21.2853 26.6517 20.4762 26.0131 19.8375C25.3745 19.1989 24.5654 18.7578 23.6826 18.567C22.7999 18.3762 21.8808 18.4438 21.0355 18.7617C20.1901 19.0796 19.4542 19.6343 18.9159 20.3594C18.3776 21.0846 18.0596 21.9495 17.9999 22.8507C17.8412 25.1614 16.8514 27.3366 15.2137 28.9744C13.5759 30.6122 11.4007 31.6019 9.08994 31.7607C8.18877 31.8203 7.32385 32.1383 6.59869 32.6766C5.87352 33.215 5.31881 33.9508 5.00094 34.7962C4.68306 35.6416 4.61548 36.5606 4.80627 37.4434C4.99707 38.3261 5.43818 39.1352 6.0768 39.7738C6.71542 40.4125 7.52451 40.8536 8.40727 41.0444C9.29003 41.2352 10.2091 41.1676 11.0544 40.8497C11.8998 40.5318 12.6357 39.9771 13.174 39.2519C13.7123 38.5268 14.0303 37.6619 14.0899 36.7607C14.2487 34.45 15.2384 32.2748 16.8762 30.637C18.514 28.9992 20.6892 28.0095 22.9999 27.8507Z" fill="#04B446"/>
<path d="M39.3501 13.1987C40.0083 12.5417 40.4569 11.7043 40.6391 10.7923C40.8212 9.88036 40.7287 8.93486 40.3732 8.07549C40.0178 7.21611 39.4154 6.4815 38.6423 5.96463C37.8691 5.44776 36.9601 5.17188 36.0301 5.17188C35.1001 5.17188 34.191 5.44776 33.4179 5.96463C32.6448 6.4815 32.0424 7.21611 31.6869 8.07549C31.3315 8.93486 31.239 9.88036 31.4211 10.7923C31.6032 11.7043 32.0518 12.5417 32.7101 13.1987C33.5912 14.078 34.7852 14.5719 36.0301 14.5719C37.2749 14.5719 38.4689 14.078 39.3501 13.1987Z" fill="#5D007B"/>
<path d="M63.12 28.9203L70.12 13.3003C70.2741 12.8969 70.5488 12.5509 70.9067 12.3093C71.2646 12.0678 71.6882 11.9424 72.12 11.9503H72.28C72.7129 11.9364 73.1393 12.0594 73.4983 12.3018C73.8574 12.5442 74.1309 12.8935 74.28 13.3003L81.28 28.9203C81.4016 29.1337 81.467 29.3746 81.47 29.6203C81.4753 29.828 81.4389 30.0347 81.3628 30.2281C81.2866 30.4214 81.1724 30.5975 81.0269 30.7458C80.8813 30.8942 80.7075 31.0117 80.5156 31.0915C80.3237 31.1713 80.1178 31.2117 79.91 31.2103C79.5526 31.2105 79.2041 31.0987 78.9135 30.8906C78.623 30.6825 78.4049 30.3887 78.29 30.0503L76.75 26.5203H67.59L66 30.1603C65.8864 30.4751 65.6765 30.7461 65.4 30.9346C65.1234 31.1231 64.7945 31.2196 64.46 31.2103C64.2578 31.2129 64.0572 31.1753 63.8698 31.0994C63.6824 31.0236 63.512 30.9112 63.3686 30.7687C63.2252 30.6262 63.1117 30.4566 63.0346 30.2697C62.9576 30.0828 62.9186 29.8824 62.92 29.6803C62.9337 29.4165 63.009 29.1596 63.14 28.9303M75.47 23.6003L72.15 16.0003L68.84 23.6203L75.47 23.6003Z" fill="#04B446"/>
<path d="M84.6399 18.3306C84.6359 18.1158 84.6749 17.9024 84.7547 17.7029C84.8344 17.5034 84.9533 17.3219 85.1042 17.1691C85.2552 17.0163 85.4352 16.8952 85.6337 16.813C85.8322 16.7308 86.0451 16.6892 86.2599 16.6906C86.4757 16.6893 86.6895 16.7308 86.8891 16.8127C87.0887 16.8947 87.27 17.0154 87.4225 17.168C87.5751 17.3205 87.6958 17.5018 87.7778 17.7014C87.8597 17.901 87.9013 18.1148 87.8999 18.3306V19.7806C88.6499 18.0006 90.0499 16.6606 91.4799 16.6606C91.6969 16.6441 91.9148 16.6747 92.1188 16.7503C92.3229 16.8259 92.5081 16.9447 92.662 17.0985C92.8158 17.2524 92.9346 17.4376 93.0102 17.6417C93.0858 17.8457 93.1164 18.0636 93.0999 18.2806C93.1118 18.6531 92.9873 19.0172 92.7498 19.3044C92.5123 19.5917 92.1781 19.7823 91.8099 19.8406C89.4999 20.2406 87.9099 22.0206 87.9099 25.3906V29.5906C87.9086 29.8046 87.8652 30.0163 87.782 30.2136C87.6989 30.4109 87.5777 30.5898 87.4255 30.7402C87.2732 30.8907 87.0927 31.0096 86.8945 31.0903C86.6962 31.171 86.484 31.2119 86.2699 31.2106C86.0564 31.2133 85.8446 31.1732 85.6468 31.0927C85.4491 31.0123 85.2694 30.8931 85.1184 30.7421C84.9675 30.5911 84.8482 30.4115 84.7678 30.2137C84.6873 30.0159 84.6472 29.8041 84.6499 29.5906L84.6399 18.3306Z" fill="#04B446"/>
<path d="M95.7698 12.8897C95.7671 12.6762 95.8072 12.4643 95.8876 12.2666C95.9681 12.0688 96.0873 11.8891 96.2383 11.7382C96.3893 11.5872 96.5689 11.468 96.7667 11.3875C96.9644 11.307 97.1763 11.267 97.3898 11.2697C97.8169 11.2749 98.2249 11.4476 98.526 11.7505C98.827 12.0535 98.9972 12.4625 98.9998 12.8897V23.3997L105.11 17.3997C105.28 17.1907 105.493 17.0203 105.735 16.8997C105.976 16.779 106.24 16.7108 106.51 16.6997C106.706 16.6913 106.902 16.7235 107.085 16.7942C107.268 16.8648 107.435 16.9725 107.575 17.1104C107.714 17.2483 107.824 17.4135 107.897 17.5958C107.971 17.778 108.005 17.9734 108 18.1697C107.985 18.4373 107.911 18.6984 107.785 18.9349C107.659 19.1715 107.483 19.3778 107.27 19.5397L103.47 22.9997L107.78 28.6297C108.043 28.9293 108.195 29.3108 108.21 29.7097C108.211 29.9096 108.172 30.1077 108.095 30.292C108.017 30.4762 107.903 30.6427 107.758 30.7812C107.614 30.9197 107.443 31.0274 107.256 31.0977C107.069 31.1679 106.869 31.1992 106.67 31.1897C106.389 31.2027 106.109 31.1423 105.858 31.0143C105.607 30.8863 105.394 30.6951 105.24 30.4597L101.17 25.0497L99.0198 27.0497V29.5297C99.0198 29.962 98.848 30.3766 98.5424 30.6822C98.2367 30.9879 97.8221 31.1597 97.3898 31.1597C96.9575 31.1597 96.5429 30.9879 96.2372 30.6822C95.9315 30.3766 95.7598 29.962 95.7598 29.5297L95.7698 12.8897Z" fill="#04B446"/>
<path d="M111.33 13.0004C111.423 12.5831 111.656 12.2099 111.989 11.9425C112.323 11.675 112.738 11.5293 113.165 11.5293C113.593 11.5293 114.008 11.675 114.341 11.9425C114.675 12.2099 114.907 12.5831 115 13.0004V13.1604C114.935 13.6068 114.711 14.0148 114.369 14.3097C114.028 14.6046 113.591 14.7669 113.14 14.7669C112.689 14.7669 112.253 14.6046 111.911 14.3097C111.57 14.0148 111.346 13.6068 111.28 13.1604L111.33 13.0004ZM111.57 18.3104C111.566 18.0956 111.605 17.8822 111.685 17.6828C111.765 17.4833 111.884 17.3018 112.035 17.149C112.186 16.9961 112.366 16.8751 112.564 16.7929C112.763 16.7107 112.975 16.6691 113.19 16.6704C113.406 16.6691 113.62 16.7106 113.819 16.7926C114.019 16.8745 114.2 16.9953 114.353 17.1478C114.505 17.3004 114.626 17.4817 114.708 17.6813C114.79 17.8808 114.832 18.0947 114.83 18.3104V29.5904C114.83 30.0227 114.659 30.4373 114.353 30.743C114.047 31.0487 113.633 31.2204 113.2 31.2204C112.768 31.2204 112.353 31.0487 112.048 30.743C111.742 30.4373 111.57 30.0227 111.57 29.5904V18.3104Z" fill="#04B446"/>
<path d="M119.76 27.1408V19.6508H119.22C118.849 19.6508 118.493 19.5033 118.23 19.2407C117.968 18.9782 117.82 18.6221 117.82 18.2508C117.82 17.8795 117.968 17.5234 118.23 17.2608C118.493 16.9983 118.849 16.8508 119.22 16.8508H119.76V14.4308C119.76 13.9985 119.932 13.5839 120.238 13.2782C120.543 12.9725 120.958 12.8008 121.39 12.8008C121.823 12.8008 122.237 12.9725 122.543 13.2782C122.849 13.5839 123.02 13.9985 123.02 14.4308V16.8508H125.58C125.952 16.8508 126.308 16.9983 126.57 17.2608C126.833 17.5234 126.98 17.8795 126.98 18.2508C126.98 18.6221 126.833 18.9782 126.57 19.2407C126.308 19.5033 125.952 19.6508 125.58 19.6508H123V26.6508C122.962 26.8906 122.98 27.1362 123.054 27.3676C123.128 27.599 123.255 27.8098 123.425 27.9831C123.596 28.1563 123.804 28.2871 124.035 28.3648C124.265 28.4426 124.51 28.4652 124.75 28.4308C125.022 28.4184 125.292 28.3917 125.56 28.3508C125.742 28.3414 125.924 28.3682 126.095 28.4297C126.266 28.4912 126.423 28.5862 126.557 28.709C126.691 28.8319 126.799 28.9802 126.875 29.1453C126.951 29.3104 126.994 29.4891 127 29.6708C126.994 29.9415 126.91 30.2046 126.757 30.4282C126.604 30.6518 126.39 30.8264 126.14 30.9308C125.422 31.1882 124.664 31.3168 123.9 31.3108C121.5 31.3108 119.81 30.2608 119.81 27.1408" fill="#04B446"/>
<path d="M136.27 31.3998C135.297 31.424 134.33 31.2481 133.429 30.8831C132.527 30.5181 131.71 29.9717 131.028 29.2778C130.347 28.584 129.815 27.7574 129.466 26.8495C129.117 25.9416 128.958 24.9717 129 23.9998C129 19.9298 131.88 16.5898 135.95 16.5898C140.47 16.5898 142.71 20.3098 142.71 23.5898C142.715 23.7945 142.679 23.9981 142.604 24.1885C142.529 24.3789 142.416 24.5521 142.272 24.6978C142.128 24.8435 141.956 24.9586 141.767 25.0363C141.577 25.114 141.374 25.1526 141.17 25.1498H132.26C132.358 26.1575 132.835 27.0903 133.594 27.7603C134.353 28.4302 135.338 28.7874 136.35 28.7598C137.586 28.7669 138.783 28.3265 139.72 27.5198C139.949 27.3198 140.245 27.2128 140.55 27.2198C140.722 27.2184 140.893 27.2518 141.052 27.318C141.211 27.3842 141.355 27.4819 141.476 27.6052C141.596 27.7284 141.69 27.8748 141.753 28.0354C141.816 28.196 141.845 28.3676 141.84 28.5398C141.837 28.7266 141.798 28.9111 141.724 29.0827C141.65 29.2543 141.544 29.4096 141.41 29.5398C140.011 30.8081 138.176 31.4855 136.29 31.4298M139.5 22.9998C139.28 20.8998 138.05 19.2598 135.89 19.2598C133.89 19.2598 132.5 20.7998 132.2 22.9998H139.5Z" fill="#04B446"/>
<path d="M160 29.5898C160 30.0221 159.828 30.4367 159.523 30.7423C159.217 31.048 158.802 31.2198 158.37 31.2198C157.938 31.2198 157.523 31.048 157.217 30.7423C156.912 30.4367 156.74 30.0221 156.74 29.5898V28.6998C156.226 29.5209 155.51 30.1972 154.662 30.6644C153.813 31.1317 152.859 31.3745 151.89 31.3698C148.55 31.3698 145.29 28.6998 145.29 23.9898V23.9398C145.29 19.2298 148.5 16.5598 151.89 16.5598C152.841 16.5484 153.781 16.7703 154.626 17.2062C155.472 17.642 156.197 18.2784 156.74 19.0598V12.8898C156.74 12.4575 156.912 12.0429 157.217 11.7372C157.523 11.4315 157.938 11.2598 158.37 11.2598C158.802 11.2598 159.217 11.4315 159.523 11.7372C159.828 12.0429 160 12.4575 160 12.8898V29.5898ZM148.58 23.9298V23.9998C148.537 24.57 148.609 25.1431 148.793 25.6844C148.978 26.2258 149.27 26.7242 149.652 27.1495C150.034 27.5748 150.499 27.9182 151.018 28.1588C151.536 28.3995 152.098 28.5325 152.67 28.5498C153.242 28.5295 153.804 28.3948 154.323 28.1536C154.842 27.9123 155.307 27.5694 155.691 27.1452C156.075 26.721 156.371 26.2241 156.559 25.6838C156.748 25.1435 156.826 24.5709 156.79 23.9998V23.9498C156.828 23.3783 156.75 22.8051 156.562 22.2643C156.374 21.7234 156.079 21.2259 155.695 20.8014C155.31 20.3769 154.844 20.034 154.325 19.7932C153.805 19.5524 153.242 19.4186 152.67 19.3998C150.43 19.3998 148.58 21.1198 148.58 23.9498" fill="#04B446"/>
</svg>
