<?xml version="1.0" encoding="UTF-8"?>
<!DOCTYPE svg PUBLIC "-//W3C//DTD SVG 1.1//EN" "http://www.w3.org/Graphics/SVG/1.1/DTD/svg11.dtd">
<!-- Creator: CorelDRAW -->
<svg xmlns="http://www.w3.org/2000/svg" xml:space="preserve" width="14.2443mm" height="13.5937mm" version="1.1" style="shape-rendering:geometricPrecision; text-rendering:geometricPrecision; image-rendering:optimizeQuality; fill-rule:evenodd; clip-rule:evenodd"
viewBox="0 0 166.6 158.99"
 xmlns:xlink="http://www.w3.org/1999/xlink"
 xmlns:xodm="http://www.corel.com/coreldraw/odm/2003">
 <defs>
  <style type="text/css">
   <![CDATA[
    .fil0 {fill:black}
   ]]>
  </style>
 </defs>
 <g id="Capa_x0020_1">
  <metadata id="CorelCorpID_0Corel-Layer"/>
  <g id="_2224219376000">
   <path class="fil0" d="M154.76 13.42c-3.19,1.58 -7.63,5.48 -10.54,7.81 -1.73,1.38 -3.46,2.82 -4.99,4.31 -1.46,1.42 -3.35,2.91 -4.94,4.36 -14.47,13.22 -23.98,22.9 -37.25,37.11 -6.04,6.47 -12.13,12.8 -18.5,18.69 -8.56,7.92 -12.64,3.72 -21.5,-7.04 -2.77,-3.37 -9.92,-12.05 -12.89,-15.01 -4.09,-4.07 -8.71,-2.35 -12.72,1.31 -1.67,1.52 -2.56,2.98 -4.2,5.11 -1.94,2.51 -6.46,8 -5.23,13.02 0.73,2.97 13.77,18.48 16.01,21.17 5.62,6.75 11.63,13.38 17.65,19.23 2.74,2.67 11.62,11.59 15.16,12.73 7.95,2.56 14.38,-9.93 19.65,-16.72 12.85,-16.57 40.07,-52.24 53.89,-66.66l21.7 -24.78c1.42,-1.88 -0.29,-4.83 -1.42,-6.64 -1.19,-1.9 -6.55,-9.66 -9.87,-8.01z"/>
   <path class="fil0" d="M155.86 56.79c-1.38,0.58 -7.55,8.21 -7.61,8.38 -0.36,0.89 0.56,5.37 0.69,6.78 4.74,49.35 -39.79,87.09 -86.87,75.14 -16.96,-4.3 -29.97,-14.83 -38.05,-25.51 -8.97,-11.85 -16.13,-29.09 -13.92,-49.14 2.13,-19.28 10.78,-33.1 20.75,-42.85 21.98,-21.5 54.79,-26.22 82.69,-11.02 3.8,2.07 6.35,4.27 9.67,6.36 1.02,-0.46 6.47,-5.28 7.19,-6.43 -1.63,-1.84 -7.91,-6 -10.29,-7.4 -21.56,-12.69 -49,-14.86 -72.14,-4.58 -17.69,7.85 -32.66,21.92 -40.56,39.51l-2.63 6.37c-9.43,24.19 -3.93,52.62 8.56,71.18 21.76,32.32 64.04,44.79 100.1,27.88 24.62,-11.55 41.64,-34.9 45.02,-62.08 1.55,-12.44 -0,-21.48 -2.58,-32.58z"/>
  </g>
  <g id="_2224219379984">
   <path class="fil0" d="M154.76 13.42c-3.19,1.58 -7.63,5.48 -10.54,7.81 -1.73,1.38 -3.46,2.82 -4.99,4.31 -1.46,1.42 -3.35,2.91 -4.94,4.36 -14.47,13.22 -23.98,22.9 -37.25,37.11 -6.04,6.47 -12.13,12.8 -18.5,18.69 -8.56,7.92 -12.64,3.72 -21.5,-7.04 -2.77,-3.37 -9.92,-12.05 -12.89,-15.01 -4.09,-4.07 -8.71,-2.35 -12.72,1.31 -1.67,1.52 -2.56,2.98 -4.2,5.11 -1.94,2.51 -6.46,8 -5.23,13.02 0.73,2.97 13.77,18.48 16.01,21.17 5.62,6.75 11.63,13.38 17.65,19.23 2.74,2.67 11.62,11.59 15.16,12.73 7.95,2.56 14.38,-9.93 19.65,-16.72 12.85,-16.57 40.07,-52.24 53.89,-66.66l21.7 -24.78c1.42,-1.88 -0.29,-4.83 -1.42,-6.64 -1.19,-1.9 -6.55,-9.66 -9.87,-8.01z"/>
   <path class="fil0" d="M155.86 56.79c-1.38,0.58 -7.55,8.21 -7.61,8.38 -0.36,0.89 0.56,5.37 0.69,6.78 4.74,49.35 -39.79,87.09 -86.87,75.14 -16.96,-4.3 -29.97,-14.83 -38.05,-25.51 -8.97,-11.85 -16.13,-29.09 -13.92,-49.14 2.13,-19.28 10.78,-33.1 20.75,-42.85 21.98,-21.5 54.79,-26.22 82.69,-11.02 3.8,2.07 6.35,4.27 9.67,6.36 1.02,-0.46 6.47,-5.28 7.19,-6.43 -1.63,-1.84 -7.91,-6 -10.29,-7.4 -21.56,-12.69 -49,-14.86 -72.14,-4.58 -17.69,7.85 -32.66,21.92 -40.56,39.51l-2.63 6.37c-9.43,24.19 -3.93,52.62 8.56,71.18 21.76,32.32 64.04,44.79 100.1,27.88 24.62,-11.55 41.64,-34.9 45.02,-62.08 1.55,-12.44 -0,-21.48 -2.58,-32.58z"/>
  </g>
 </g>
</svg>
