<?xml version="1.0" encoding="UTF-8"?>
<!DOCTYPE svg PUBLIC "-//W3C//DTD SVG 1.1//EN" "http://www.w3.org/Graphics/SVG/1.1/DTD/svg11.dtd">
<!-- Creator: CorelDRAW -->
<svg xmlns="http://www.w3.org/2000/svg" xml:space="preserve" width="1.4002mm" height="1.3997mm" version="1.1" style="shape-rendering:geometricPrecision; text-rendering:geometricPrecision; image-rendering:optimizeQuality; fill-rule:evenodd; clip-rule:evenodd"
viewBox="0 0 0.13 0.13"
 xmlns:xlink="http://www.w3.org/1999/xlink"
 xmlns:xodm="http://www.corel.com/coreldraw/odm/2003">
 <defs>
  <style type="text/css">
   <![CDATA[
    .fil0 {fill:black}
    .fil1 {fill:#008F00}
   ]]>
  </style>
 </defs>
 <g id="Capa_x0020_1">
  <metadata id="CorelCorpID_0Corel-Layer"/>
  <path class="fil0" d="M0.06 0c-0.01,0 -0.02,0.01 -0.03,0.01 -0,0 -0.01,0.01 -0.01,0.01 -0.01,0.01 -0.01,0.03 -0.01,0.04 0,0.03 0.02,0.05 0.04,0.06 0.01,0.01 0.03,0.01 0.04,0 0.02,-0 0.03,-0.02 0.04,-0.03 0.01,-0.01 0.01,-0.02 0.01,-0.04 -0,-0 -0,-0 -0,-0 -0,-0 -0,-0.01 -0,-0.01 -0,-0.01 -0.01,-0.02 -0.01,-0.03 -0,-0 -0.01,-0.01 -0.01,-0.01 -0.01,-0.01 -0.02,-0.01 -0.04,-0.01z"/>
  <path class="fil1" d="M0.05 0.06c-0,0 -0,0 -0,0 -0,0.01 -0.01,0.01 -0.01,0.02 -0,0 -0.01,0.01 -0.01,0.01l0.08 -0c-0,-0 -0,-0 -0,-0l-0.02 -0.03c-0,0 -0,0 -0,0 -0,0 -0,0 -0,0l-0 0c-0,0 -0,0 -0,0 -0,0 -0.01,0 -0.01,-0l-0.01 -0.01zm-0.01 0c0,-0 0.01,-0.01 0.01,-0.01 -0,-0 -0.01,-0.01 -0.01,-0.01l-0.01 -0.01c-0,-0 -0,-0 -0,-0l-0 -0c-0,-0 -0,-0 -0,-0l0 0.05 0.02 -0.02zm-0.02 -0.03c0,0 0,0 0,0 0,0 0,0 0,0l0.03 0.02c0,0 0,0 0.01,0 0,0 0,0 0.01,0 0,0 0,-0 0.01,-0l0.04 -0.03c-0,-0 -0.01,-0 -0.01,-0l-0.03 0c-0,0 -0.04,-0 -0.04,0zm0.06 0.02c0,0 0,0 0,0 0,0 0,0 0,0l0.02 0.02c0,0 0,0 0,0 0,0 0,0 0,0l-0 -0.05c-0,0 -0,0 -0,0l-0.02 0.02z"/>
 </g>
</svg>
