<svg width="895" height="582" viewBox="0 0 895 582" fill="none" xmlns="http://www.w3.org/2000/svg">
<mask id="mask0_193_60" style="mask-type:luminance" maskUnits="userSpaceOnUse" x="0" y="0" width="895" height="582">
<path d="M894.92 0L0.5 1V581.49L894.92 580.49V0Z" fill="white"/>
</mask>
<g mask="url(#mask0_193_60)">
<path d="M404.3 423.62C423.04 407.03 647.47 266.7 837.69 510.37C862.13 545.9 890.6 576.88 931.58 588.52C1013.41 611.77 1108.94 571.42 1144.74 494.26C1191.35 393.79 1170.92 272.12 1089.08 248.88C1040.55 235.09 1005.44 248.609 917.71 297.329C917.71 297.329 720.02 425.33 467.07 128.09C431.63 85.8495 397.2 54.0895 346.78 33.0295C236.52 -12.9705 62.8797 67.7395 15.5997 211.54C-23.7003 331.06 13.4097 494.119 128.35 526.779C202.79 547.879 313.23 496.3 404.3 423.62Z" fill="#00B147"/>
</g>
</svg>
