<?xml version="1.0" encoding="UTF-8"?>
<!DOCTYPE svg PUBLIC "-//W3C//DTD SVG 1.1//EN" "http://www.w3.org/Graphics/SVG/1.1/DTD/svg11.dtd">
<!-- Creator: CorelDRAW -->
<svg xmlns="http://www.w3.org/2000/svg" xml:space="preserve" width="14.0329mm" height="14.2766mm" version="1.1" style="shape-rendering:geometricPrecision; text-rendering:geometricPrecision; image-rendering:optimizeQuality; fill-rule:evenodd; clip-rule:evenodd"
viewBox="0 0 294.91 300.03"
 xmlns:xlink="http://www.w3.org/1999/xlink"
 xmlns:xodm="http://www.corel.com/coreldraw/odm/2003">
 <defs>
  <style type="text/css">
   <![CDATA[
    .fil0 {fill:#16A34A;fill-rule:nonzero}
   ]]>
  </style>
 </defs>
 <g id="Capa_x0020_1">
  <metadata id="CorelCorpID_0Corel-Layer"/>
  <path class="fil0" d="M266.07 299.99c18.8,-0.01 28.75,-10.22 28.76,-29.15 0.01,-74.35 0.21,-148.73 -0.04,-223.08 -0.04,-12.3 -8.18,-22.96 -19.83,-24.96 -7.21,-1.23 -14.7,-0.88 -22.78,-1.28 0,5.5 0.04,10.09 -0.01,14.68 -0.11,11.2 -7.58,19.34 -17.89,19.56 -10.33,0.21 -18.3,-8.19 -18.49,-19.58 -0.08,-4.59 -0.01,-9.18 -0.01,-13.86 -17.12,0 -33.52,0 -50.23,0 0,5.13 0.06,9.78 -0.01,14.42 -0.17,10.89 -7.63,18.86 -17.75,19.03 -10.25,0.17 -18.16,-7.99 -18.34,-19.04 -0.08,-4.77 -0.01,-9.55 -0.01,-14.4 -17.08,0 -33.47,0 -50.23,0 0,4.93 0.05,9.38 -0.01,13.83 -0.16,11.43 -8.03,19.77 -18.44,19.61 -10.21,-0.16 -17.79,-8.37 -17.95,-19.55 -0.07,-4.59 -0.01,-9.19 -0.01,-14.37 -6.01,0 -11.37,-0.19 -16.7,0.04 -15.6,0.67 -25.85,11.38 -25.91,27 -0.29,74.21 -0.15,148.33 -0.02,222.54 0.03,18.05 10.3,28.55 28.26,28.56 79.22,0.04 158.44,0.04 237.66,-0.01zm-41.32 -276.44c0,-4.64 -0.13,-9.29 0.04,-13.92 0.22,-5.95 3.96,-9.66 9.33,-9.6 5.37,0.06 9.02,3.78 9.12,9.82 0.15,9.09 0.16,18.2 -0.01,27.29 -0.11,5.77 -4.18,9.8 -9.32,9.73 -5.16,-0.08 -8.94,-4.09 -9.14,-9.95 -0.15,-4.45 -0.03,-8.91 -0.02,-13.37zm-68.15 -0.36c0.01,4.82 0.16,9.65 -0.03,14.47 -0.22,5.43 -4.22,9.28 -9.18,9.2 -4.96,-0.07 -8.92,-3.97 -9,-9.4 -0.15,-9.46 -0.17,-18.92 0.03,-28.38 0.12,-5.58 3.97,-9.12 9.18,-9.06 5.25,0.05 8.78,3.58 8.97,9.26 0.15,4.63 0.03,9.27 0.04,13.91zm-104.9 0.28c0,-4.46 -0.11,-8.91 0.03,-13.36 0.19,-6.22 3.8,-10.08 9.19,-10.1l0.02 0c0.08,0 0.16,0 0.25,0 5.3,0.11 8.95,3.94 9.03,9.92 0.13,8.91 0.13,17.82 0.01,26.73 -0.08,6.13 -4.12,10.35 -9.43,10.23 -5.13,-0.12 -8.87,-4.14 -9.07,-10.06 -0.16,-4.45 -0.03,-8.91 -0.03,-13.36zm201.53 158.66l0 17.09c0,5.86 -4.75,10.62 -10.62,10.62l-17.39 0c-5.86,0 -10.62,-4.75 -10.62,-10.62l0 -17.09c0,-5.86 4.75,-10.62 10.62,-10.62l17.39 0c5.86,0 10.62,4.75 10.62,10.62zm-85.7 -10.76l17.2 0c5.86,0 10.62,4.75 10.62,10.62l0 17.38c0,5.86 -4.75,10.62 -10.62,10.62l-17.2 0c-5.86,0 -10.62,-4.75 -10.62,-10.62l0 -17.38c0,-5.86 4.75,-10.62 10.62,-10.62zm-114.79 -56.66l17.09 0c5.86,0 10.62,4.75 10.62,10.62l0 17.49c0,5.86 -4.75,10.62 -10.62,10.62l-17.09 0c-5.86,0 -10.62,-4.75 -10.62,-10.62l0 -17.49c0,-5.86 4.75,-10.62 10.62,-10.62zm0 56.6l17.09 0c5.86,0 10.62,4.75 10.62,10.62l0 17.49c0,5.86 -4.75,10.62 -10.62,10.62l-17.09 0c-5.86,0 -10.62,-4.75 -10.62,-10.62l0 -17.49c0,-5.86 4.75,-10.62 10.62,-10.62zm57.59 0l17.09 0c5.86,0 10.62,4.75 10.62,10.62l0 17.49c0,5.86 -4.75,10.62 -10.62,10.62l-17.09 0c-5.86,0 -10.62,-4.75 -10.62,-10.62l0 -17.49c0,-5.86 4.75,-10.62 10.62,-10.62zm132.03 -17.99l-17.27 0c-5.86,0 -10.62,-4.75 -10.62,-10.62l0 -17.27c0,-5.86 4.75,-10.62 10.62,-10.62l17.27 0c5.86,0 10.62,4.75 10.62,10.62l0 17.27c0,5.86 -4.75,10.62 -10.62,10.62zm-114.99 0.07l-17.25 0c-5.86,0 -10.62,-4.75 -10.62,-10.62l0 -17.41c0,-5.87 4.75,-10.62 10.62,-10.62l17.25 0c5.86,0 10.62,4.75 10.62,10.62l0 17.41c0,5.86 -4.75,10.62 -10.62,10.62zm68.19 -27.94l0 17.23c0,5.86 -4.75,10.62 -10.62,10.62l-17.56 0c-5.86,0 -10.62,-4.75 -10.62,-10.62l0 -17.23c0,-5.86 4.75,-10.62 10.62,-10.62l17.56 0c5.86,0 10.62,4.75 10.62,10.62zm-0.22 113.35l0 16.88c0,5.86 -4.75,10.62 -10.62,10.62l-17.09 0c-5.86,0 -10.62,-4.75 -10.62,-10.62l0 -16.88c0,-5.86 4.75,-10.62 10.62,-10.62l17.09 0c5.86,0 10.62,4.75 10.62,10.62zm-57.19 -0.28l0 16.97c0,5.86 -4.75,10.62 -10.62,10.62l-17.3 0c-5.86,0 -10.62,-4.75 -10.62,-10.62l0 -16.97c0,-5.86 4.75,-10.62 10.62,-10.62l17.3 0c5.86,0 10.62,4.75 10.62,10.62zm-57.61 -0l0 16.96c0,5.86 -4.75,10.62 -10.62,10.62l-17.29 0c-5.86,0 -10.62,-4.75 -10.62,-10.62l0 -16.96c0,-5.86 4.75,-10.62 10.62,-10.62l17.29 0c5.86,0 10.62,4.75 10.62,10.62zm-68.85 -144.77l271.63 0 0 180.72c0,7.64 -6.25,13.89 -13.89,13.89l-243.85 0c-7.64,0 -13.89,-6.25 -13.89,-13.89l0 -180.72z"/>
  <path class="fil0" d="M266.07 299.99c18.8,-0.01 28.75,-10.22 28.76,-29.15 0.01,-74.35 0.21,-148.73 -0.04,-223.08 -0.04,-12.3 -8.18,-22.96 -19.83,-24.96 -7.21,-1.23 -14.7,-0.88 -22.78,-1.28 0,5.5 0.04,10.09 -0.01,14.68 -0.11,11.2 -7.58,19.34 -17.89,19.56 -10.33,0.21 -18.3,-8.19 -18.49,-19.58 -0.08,-4.59 -0.01,-9.18 -0.01,-13.86 -17.12,0 -33.52,0 -50.23,0 0,5.13 0.06,9.78 -0.01,14.42 -0.17,10.89 -7.63,18.86 -17.75,19.03 -10.25,0.17 -18.16,-7.99 -18.34,-19.04 -0.08,-4.77 -0.01,-9.55 -0.01,-14.4 -17.08,0 -33.47,0 -50.23,0 0,4.93 0.05,9.38 -0.01,13.83 -0.16,11.43 -8.03,19.77 -18.44,19.61 -10.21,-0.16 -17.79,-8.37 -17.95,-19.55 -0.07,-4.59 -0.01,-9.19 -0.01,-14.37 -6.01,0 -11.37,-0.19 -16.7,0.04 -15.6,0.67 -25.85,11.38 -25.91,27 -0.29,74.21 -0.15,148.33 -0.02,222.54 0.03,18.05 10.3,28.55 28.26,28.56 79.22,0.04 158.44,0.04 237.66,-0.01zm-41.32 -276.44c0,-4.64 -0.13,-9.29 0.04,-13.92 0.22,-5.95 3.96,-9.66 9.33,-9.6 5.37,0.06 9.02,3.78 9.12,9.82 0.15,9.09 0.16,18.2 -0.01,27.29 -0.11,5.77 -4.18,9.8 -9.32,9.73 -5.16,-0.08 -8.94,-4.09 -9.14,-9.95 -0.15,-4.45 -0.03,-8.91 -0.02,-13.37zm-68.15 -0.36c0.01,4.82 0.16,9.65 -0.03,14.47 -0.22,5.43 -4.22,9.28 -9.18,9.2 -4.96,-0.07 -8.92,-3.97 -9,-9.4 -0.15,-9.46 -0.17,-18.92 0.03,-28.38 0.12,-5.58 3.97,-9.12 9.18,-9.06 5.25,0.05 8.78,3.58 8.97,9.26 0.15,4.63 0.03,9.27 0.04,13.91zm-104.9 0.28c0,-4.46 -0.11,-8.91 0.03,-13.36 0.19,-6.22 3.8,-10.08 9.19,-10.1l0.02 0c0.08,0 0.16,0 0.25,0 5.3,0.11 8.95,3.94 9.03,9.92 0.13,8.91 0.13,17.82 0.01,26.73 -0.08,6.13 -4.12,10.35 -9.43,10.23 -5.13,-0.12 -8.87,-4.14 -9.07,-10.06 -0.16,-4.45 -0.03,-8.91 -0.03,-13.36zm201.53 158.66l0 17.09c0,5.86 -4.75,10.62 -10.62,10.62l-17.39 0c-5.86,0 -10.62,-4.75 -10.62,-10.62l0 -17.09c0,-5.86 4.75,-10.62 10.62,-10.62l17.39 0c5.86,0 10.62,4.75 10.62,10.62zm-85.7 -10.76l17.2 0c5.86,0 10.62,4.75 10.62,10.62l0 17.38c0,5.86 -4.75,10.62 -10.62,10.62l-17.2 0c-5.86,0 -10.62,-4.75 -10.62,-10.62l0 -17.38c0,-5.86 4.75,-10.62 10.62,-10.62zm-114.79 -56.66l17.09 0c5.86,0 10.62,4.75 10.62,10.62l0 17.49c0,5.86 -4.75,10.62 -10.62,10.62l-17.09 0c-5.86,0 -10.62,-4.75 -10.62,-10.62l0 -17.49c0,-5.86 4.75,-10.62 10.62,-10.62zm0 56.6l17.09 0c5.86,0 10.62,4.75 10.62,10.62l0 17.49c0,5.86 -4.75,10.62 -10.62,10.62l-17.09 0c-5.86,0 -10.62,-4.75 -10.62,-10.62l0 -17.49c0,-5.86 4.75,-10.62 10.62,-10.62zm57.59 0l17.09 0c5.86,0 10.62,4.75 10.62,10.62l0 17.49c0,5.86 -4.75,10.62 -10.62,10.62l-17.09 0c-5.86,0 -10.62,-4.75 -10.62,-10.62l0 -17.49c0,-5.86 4.75,-10.62 10.62,-10.62zm132.03 -17.99l-17.27 0c-5.86,0 -10.62,-4.75 -10.62,-10.62l0 -17.27c0,-5.86 4.75,-10.62 10.62,-10.62l17.27 0c5.86,0 10.62,4.75 10.62,10.62l0 17.27c0,5.86 -4.75,10.62 -10.62,10.62zm-114.99 0.07l-17.25 0c-5.86,0 -10.62,-4.75 -10.62,-10.62l0 -17.41c0,-5.87 4.75,-10.62 10.62,-10.62l17.25 0c5.86,0 10.62,4.75 10.62,10.62l0 17.41c0,5.86 -4.75,10.62 -10.62,10.62zm68.19 -27.94l0 17.23c0,5.86 -4.75,10.62 -10.62,10.62l-17.56 0c-5.86,0 -10.62,-4.75 -10.62,-10.62l0 -17.23c0,-5.86 4.75,-10.62 10.62,-10.62l17.56 0c5.86,0 10.62,4.75 10.62,10.62zm-0.22 113.35l0 16.88c0,5.86 -4.75,10.62 -10.62,10.62l-17.09 0c-5.86,0 -10.62,-4.75 -10.62,-10.62l0 -16.88c0,-5.86 4.75,-10.62 10.62,-10.62l17.09 0c5.86,0 10.62,4.75 10.62,10.62zm-57.19 -0.28l0 16.97c0,5.86 -4.75,10.62 -10.62,10.62l-17.3 0c-5.86,0 -10.62,-4.75 -10.62,-10.62l0 -16.97c0,-5.86 4.75,-10.62 10.62,-10.62l17.3 0c5.86,0 10.62,4.75 10.62,10.62zm-57.61 -0l0 16.96c0,5.86 -4.75,10.62 -10.62,10.62l-17.29 0c-5.86,0 -10.62,-4.75 -10.62,-10.62l0 -16.96c0,-5.86 4.75,-10.62 10.62,-10.62l17.29 0c5.86,0 10.62,4.75 10.62,10.62zm-68.85 -144.77l271.63 0 0 180.72c0,7.64 -6.25,13.89 -13.89,13.89l-243.85 0c-7.64,0 -13.89,-6.25 -13.89,-13.89l0 -180.72z"/>
 </g>
</svg>
