<?xml version="1.0" encoding="UTF-8"?>
<!DOCTYPE svg PUBLIC "-//W3C//DTD SVG 1.1//EN" "http://www.w3.org/Graphics/SVG/1.1/DTD/svg11.dtd">
<!-- Creator: CorelDRAW -->
<svg xmlns="http://www.w3.org/2000/svg" xml:space="preserve" width="20.2209mm" height="21.6588mm" version="1.1" style="shape-rendering:geometricPrecision; text-rendering:geometricPrecision; image-rendering:optimizeQuality; fill-rule:evenodd; clip-rule:evenodd"
viewBox="0 0 205.54 220.16"
 xmlns:xlink="http://www.w3.org/1999/xlink"
 xmlns:xodm="http://www.corel.com/coreldraw/odm/2003">
 <defs>
  <style type="text/css">
   <![CDATA[
    .fil0 {fill:#16A34A}
   ]]>
  </style>
 </defs>
 <g id="Capa_x0020_1">
  <metadata id="CorelCorpID_0Corel-Layer"/>
  <g id="_1527291619856">
   <path class="fil0" d="M15.18 79.55l175.27 0.04c-0.47,6.34 -0.09,14.1 -0.09,20.6l0 81.7c0.01,7.11 -0.97,11.29 -4.48,15.61 -7.64,9.43 -18.11,7.43 -32.8,7.44l-103.2 -0.01c-9.68,-0.01 -18.83,1.42 -26.22,-3.62 -7.89,-5.38 -8.48,-13.23 -8.48,-21.57l0.01 -86 -0.01 -14.19zm17.3 140.61l140.58 0c2.6,-0.91 9.66,-0.74 17.34,-6.11l3.55 -2.88c0.52,-0.53 0.59,-0.58 1.1,-1.07 7.18,-6.84 10.49,-15.92 10.49,-25.63l-0 -135.88c0,-12.09 -3.87,-18.61 -9.74,-24.23 -5.17,-4.95 -14.01,-9.67 -24.23,-9.74 0,7.72 0.94,22.39 -1.92,28.19 -7.98,16.16 -29.9,14.73 -36.72,-0.27 -2.01,-4.42 -2.62,-22.29 -1.56,-27.94l-57.59 0.02c0,8.74 1.18,21.29 -1.9,28.01 -6.02,13.17 -24.06,16.12 -33.77,4.46 -0.05,-0.07 -0.14,-0.16 -0.19,-0.23 -6.65,-8.07 -4.54,-19.58 -4.54,-31.95 -5.87,-1.56 -18.75,4.61 -23.93,9.59 -7.28,7 -9.45,14.58 -9.45,24.52l-0 135.88c-0.02,9.2 3.4,18.02 9.64,24.31 3.48,3.51 5.08,4.9 9.97,7.29 2.21,1.08 3.55,1.74 6.14,2.42 1.81,0.48 5.48,0.8 6.74,1.24z"/>
   <path class="fil0" d="M76.54 95.71c-25.96,0 -30.13,26.14 -24.82,27.61 0.86,0.24 8.24,0.27 9.4,0.2 4.03,-0.27 3.76,-3.19 5.06,-7.01 2.85,-8.41 12.77,-7.98 17.16,-5.03 5.58,3.74 6.03,15.49 -0.72,18.92 -5.2,2.63 -12.13,-0.09 -12.13,6.79 0,3.6 -0.55,6.49 3.03,7.38 3.85,0.95 7.84,-0.03 12.08,3.37 1.74,1.4 2.45,2.31 3.22,4.51 6.21,17.68 -18.31,25.74 -23.44,10.53 -1.95,-5.78 0.49,-7.69 -13.78,-6.89 -8.38,0.47 -0.67,20.44 8.94,25.08 3.51,1.69 8.02,3.08 12.12,3.32 11.93,0.69 21.24,-0.7 28.6,-9.65 1.15,-1.4 3.35,-5.01 4.15,-7.12 2.3,-6.09 2.75,-12.05 0.79,-18.85 -0.8,-2.76 -2.27,-4.98 -4.17,-7.06 -2.02,-2.22 -5.65,-4.29 -5.68,-5.49 -0.04,-1.31 7.46,-5.78 8.15,-13.75 0.05,-0.55 0.06,-1.49 0.09,-2.08 0.83,-15.73 -10.7,-24.77 -28.04,-24.77z"/>
   <path class="fil0" d="M120.95 119.97c0.88,4.15 7.09,3.02 12.79,3.01 7.55,-0.01 7.38,0.8 7.37,8.17 -0.01,10.32 0,20.64 0,30.96 0,22.04 -1.89,20.54 10.69,20.48 4.79,-0.02 6.59,-0.09 6.81,-4.56 0.06,-1.24 0.01,-2.62 0.01,-3.87l0 -46.87c0,-5.13 0.98,-27.58 -0.99,-29.92 -1.5,-1.77 -11.56,-1.98 -13.06,-0.1 -0.42,0.52 -1.71,4.61 -2.16,5.62 -0.84,1.89 -2.32,3.11 -3.56,4.15 -8.17,6.85 -20.76,-0.53 -17.9,12.94z"/>
   <path class="fil0" d="M55.44 0l-3.63 0c-0.11,0.06 -0.25,0.13 -0.33,0.17 -0.08,0.04 -0.23,0.11 -0.33,0.16l-0.67 0.26c-0.1,0.04 -0.22,0.08 -0.32,0.12 -3.06,1.32 -4.95,3.8 -5.36,7.47 -0.35,3.19 -0.3,26.54 0.41,28.76 2.67,8.31 14.4,8.11 16.85,-0.28 0.66,-2.26 0.61,-25.71 0.24,-28.88 -0.26,-2.17 -1.25,-3.78 -2.27,-5.02 -1.15,-1.41 -2.76,-1.66 -4.59,-2.75z"/>
   <path class="fil0" d="M153.05 0l-3.59 0c-0.11,0.07 -0.25,0.15 -0.33,0.19 -0.08,0.04 -0.22,0.13 -0.32,0.18 -8.25,4.17 -6.32,7.85 -6.31,22.42 0,3.46 -0.33,11.48 0.53,14.39 1.09,3.71 5.12,6.03 8.77,5.83 3.18,-0.18 5.73,-1.88 7.26,-4.38l0.41 -0.86c1.09,-2.78 1.01,-26.74 0.55,-30.46 -0.62,-4.92 -4.87,-6.09 -6.96,-7.31z"/>
  </g>
 </g>
</svg>
