<?xml version="1.0" encoding="UTF-8"?>
<!DOCTYPE svg PUBLIC "-//W3C//DTD SVG 1.1//EN" "http://www.w3.org/Graphics/SVG/1.1/DTD/svg11.dtd">
<!-- Creator: CorelDRAW -->
<svg xmlns="http://www.w3.org/2000/svg" xml:space="preserve" width="14.5323mm" height="14.6239mm" version="1.1" style="shape-rendering:geometricPrecision; text-rendering:geometricPrecision; image-rendering:optimizeQuality; fill-rule:evenodd; clip-rule:evenodd"
viewBox="0 0 299.36 301.25"
 xmlns:xlink="http://www.w3.org/1999/xlink"
 xmlns:xodm="http://www.corel.com/coreldraw/odm/2003">
 <defs>
  <style type="text/css">
   <![CDATA[
    .fil0 {fill:#16A34A}
   ]]>
  </style>
 </defs>
 <g id="Capa_x0020_1">
  <metadata id="CorelCorpID_0Corel-Layer"/>
  <g id="_2224219758608">
   <path class="fil0" d="M-0 123.44l0 7.9c2.67,3.28 3.7,6.57 9.47,7 13.52,1.01 10.91,-14.32 17.64,-32.05 18.44,-48.59 61.55,-82.01 114.51,-84.76 75.07,-3.89 136.19,56.03 136.38,128.77 0.26,96.91 -102.27,158.68 -188.05,115.69 -32.24,-16.16 -57.44,-46.56 -66.59,-82.46 -2.03,-7.95 -1.66,-20.29 -13.28,-19.98 -6.2,0.17 -7.39,3.82 -10.09,7.09l0 6.41c0.82,1.69 2.39,10.18 3.13,12.91 1.19,4.4 2.36,8.31 3.91,12.41 2.87,7.61 6.47,15.84 10.34,22.38 6.46,10.93 12.66,19.5 20.68,28.38 11.29,12.5 31.15,27.1 47.48,34.27 7.82,3.44 15.19,6.3 24,8.67 9.52,2.56 26.38,4.32 28.38,5.16l20 0c5.96,-2.24 23.21,0.42 55.62,-14.77 30.5,-14.3 56.78,-40.54 71.08,-71.05 15.3,-32.64 12.56,-49.99 14.75,-56.17l0 -18.4c-1.26,-3.24 -1.5,-11.84 -2.22,-16.05 -10.03,-58.18 -53.74,-105.05 -110.77,-120.04 -4.73,-1.24 -9.54,-2.2 -14.61,-2.99 -3.63,-0.56 -13.08,-1.04 -15.51,-1.78l-15.05 0c-2.25,0.71 -11.56,1.16 -14.93,1.68 -4.82,0.74 -9.13,1.59 -13.71,2.71 -39.62,9.72 -73.93,35.34 -94.46,70.94 -14.96,25.95 -15.69,43.61 -18.1,48.11z"/>
   <path class="fil0" d="M93.74 183.68c1.51,-1.67 8.98,-6.16 11.5,-8.01 11.71,-8.6 22.41,-16.37 28.56,-29.94 10.62,-23.44 -0.37,-44.11 -19.23,-50.88 -20.18,-7.25 -47.37,0.36 -53.68,19.48 -4.35,13.2 10.33,20.8 18.59,11.06 3.46,-4.08 4.77,-6.86 10.14,-9.37 16.77,-7.84 32.88,7.62 20.4,25.43 -1.51,2.16 -2.77,3.61 -4.46,4.97l-36.61 31.95c-4,3.64 -18.21,14.78 -9.65,23.95 5.31,5.69 26.26,3.36 35.67,3.36 8.66,0 31.76,1.1 38.79,-0.33 11.65,-2.37 9.92,-20.71 -1.15,-22.24 -11.74,-1.62 -27.38,1.27 -38.88,0.56z"/>
   <path class="fil0" d="M201.02 128.44l-0.21 32.48 -27.08 0.26c1.36,-2.46 25.94,-31.96 27.29,-32.73zm-1.39 55.51c0.29,11.23 -1.98,22.53 11.69,22.47 14.42,-0.06 11.13,-14.38 11.48,-22.62 3.75,-0.41 15.81,1.68 16.36,-10.84 0.49,-11 -6.92,-11 -16.26,-11.64 -1.3,-8.27 -0.22,-27.38 -0.22,-36.79 0,-10.45 2.49,-27.48 -5.8,-31.33 -11.25,-5.23 -19.32,7.54 -23.32,12.33 -5.05,6.05 -48.56,57.52 -50.5,62.08 -2.19,5.13 -0.97,10.63 2.87,13.5 3.99,2.98 10.63,2.5 16.32,2.49 6.94,-0 32.56,-0.88 37.37,0.36z"/>
  </g>
  <g id="_2224219757264">
   <path class="fil0" d="M-0 123.44l0 7.9c2.67,3.28 3.7,6.57 9.47,7 13.52,1.01 10.91,-14.32 17.64,-32.05 18.44,-48.59 61.55,-82.01 114.51,-84.76 75.07,-3.89 136.19,56.03 136.38,128.77 0.26,96.91 -102.27,158.68 -188.05,115.69 -32.24,-16.16 -57.44,-46.56 -66.59,-82.46 -2.03,-7.95 -1.66,-20.29 -13.28,-19.98 -6.2,0.17 -7.39,3.82 -10.09,7.09l0 6.41c0.82,1.69 2.39,10.18 3.13,12.91 1.19,4.4 2.36,8.31 3.91,12.41 2.87,7.61 6.47,15.84 10.34,22.38 6.46,10.93 12.66,19.5 20.68,28.38 11.29,12.5 31.15,27.1 47.48,34.27 7.82,3.44 15.19,6.3 24,8.67 9.52,2.56 26.38,4.32 28.38,5.16l20 0c5.96,-2.24 23.21,0.42 55.62,-14.77 30.5,-14.3 56.78,-40.54 71.08,-71.05 15.3,-32.64 12.56,-49.99 14.75,-56.17l0 -18.4c-1.26,-3.24 -1.5,-11.84 -2.22,-16.05 -10.03,-58.18 -53.74,-105.05 -110.77,-120.04 -4.73,-1.24 -9.54,-2.2 -14.61,-2.99 -3.63,-0.56 -13.08,-1.04 -15.51,-1.78l-15.05 0c-2.25,0.71 -11.56,1.16 -14.93,1.68 -4.82,0.74 -9.13,1.59 -13.71,2.71 -39.62,9.72 -73.93,35.34 -94.46,70.94 -14.96,25.95 -15.69,43.61 -18.1,48.11z"/>
   <path class="fil0" d="M93.74 183.68c1.51,-1.67 8.98,-6.16 11.5,-8.01 11.71,-8.6 22.41,-16.37 28.56,-29.94 10.62,-23.44 -0.37,-44.11 -19.23,-50.88 -20.18,-7.25 -47.37,0.36 -53.68,19.48 -4.35,13.2 10.33,20.8 18.59,11.06 3.46,-4.08 4.77,-6.86 10.14,-9.37 16.77,-7.84 32.88,7.62 20.4,25.43 -1.51,2.16 -2.77,3.61 -4.46,4.97l-36.61 31.95c-4,3.64 -18.21,14.78 -9.65,23.95 5.31,5.69 26.26,3.36 35.67,3.36 8.66,0 31.76,1.1 38.79,-0.33 11.65,-2.37 9.92,-20.71 -1.15,-22.24 -11.74,-1.62 -27.38,1.27 -38.88,0.56z"/>
   <path class="fil0" d="M201.02 128.44l-0.21 32.48 -27.08 0.26c1.36,-2.46 25.94,-31.96 27.29,-32.73zm-1.39 55.51c0.29,11.23 -1.98,22.53 11.69,22.47 14.42,-0.06 11.13,-14.38 11.48,-22.62 3.75,-0.41 15.81,1.68 16.36,-10.84 0.49,-11 -6.92,-11 -16.26,-11.64 -1.3,-8.27 -0.22,-27.38 -0.22,-36.79 0,-10.45 2.49,-27.48 -5.8,-31.33 -11.25,-5.23 -19.32,7.54 -23.32,12.33 -5.05,6.05 -48.56,57.52 -50.5,62.08 -2.19,5.13 -0.97,10.63 2.87,13.5 3.99,2.98 10.63,2.5 16.32,2.49 6.94,-0 32.56,-0.88 37.37,0.36z"/>
  </g>
 </g>
</svg>
