<?xml version="1.0" encoding="UTF-8"?>
<!DOCTYPE svg PUBLIC "-//W3C//DTD SVG 1.1//EN" "http://www.w3.org/Graphics/SVG/1.1/DTD/svg11.dtd">
<!-- Creator: CorelDRAW -->
<svg xmlns="http://www.w3.org/2000/svg" xml:space="preserve" width="8.9717mm" height="8.9717mm" version="1.1" style="shape-rendering:geometricPrecision; text-rendering:geometricPrecision; image-rendering:optimizeQuality; fill-rule:evenodd; clip-rule:evenodd"
viewBox="0 0 76.54 76.54"
 xmlns:xlink="http://www.w3.org/1999/xlink"
 xmlns:xodm="http://www.corel.com/coreldraw/odm/2003">
 <defs>
  <style type="text/css">
   <![CDATA[
    .fil0 {fill:#010201;fill-rule:nonzero}
    .fil1 {fill:white;fill-rule:nonzero}
   ]]>
  </style>
 </defs>
 <g id="Capa_x0020_1">
  <metadata id="CorelCorpID_0Corel-Layer"/>
  <g id="_2115512751232">
   <path class="fil0" d="M38.27 0c21.14,0 38.27,17.13 38.27,38.27 0,21.14 -17.13,38.27 -38.27,38.27 -21.14,0 -38.27,-17.13 -38.27,-38.27 0,-21.14 17.13,-38.27 38.27,-38.27z"/>
   <path class="fil1" d="M38.27 14.17c-6.54,0 -7.36,0.03 -9.93,0.15 -2.56,0.12 -4.32,0.52 -5.85,1.12 -1.58,0.62 -2.93,1.44 -4.27,2.78 -1.34,1.34 -2.16,2.68 -2.78,4.27 -0.6,1.53 -1,3.28 -1.12,5.85 -0.12,2.57 -0.15,3.39 -0.15,9.94 0,6.54 0.03,7.36 0.15,9.93 0.12,2.56 0.52,4.32 1.12,5.85 0.62,1.58 1.44,2.93 2.78,4.27 1.34,1.34 2.68,2.16 4.27,2.78 1.53,0.6 3.28,1 5.85,1.12 2.57,0.12 3.39,0.15 9.93,0.15 6.54,0 7.36,-0.03 9.93,-0.15 2.57,-0.12 4.32,-0.52 5.85,-1.12 1.59,-0.62 2.93,-1.44 4.27,-2.78 1.34,-1.34 2.16,-2.68 2.78,-4.27 0.6,-1.53 1,-3.28 1.12,-5.85 0.12,-2.57 0.15,-3.39 0.15,-9.93 0,-6.54 -0.03,-7.36 -0.15,-9.94 -0.12,-2.56 -0.52,-4.32 -1.12,-5.85 -0.62,-1.59 -1.44,-2.93 -2.78,-4.27 -1.34,-1.34 -2.68,-2.16 -4.27,-2.78 -1.53,-0.6 -3.28,-1 -5.85,-1.12 -2.57,-0.12 -3.39,-0.15 -9.93,-0.15l0 0zm0 4.34c6.43,0 7.2,0.02 9.74,0.14 2.35,0.11 3.62,0.5 4.47,0.83 1.12,0.44 1.93,0.96 2.77,1.8 0.84,0.84 1.37,1.65 1.8,2.77 0.33,0.85 0.72,2.12 0.83,4.47 0.12,2.54 0.14,3.3 0.14,9.74 0,6.43 -0.02,7.2 -0.14,9.74 -0.11,2.35 -0.5,3.62 -0.83,4.47 -0.44,1.13 -0.96,1.93 -1.8,2.77 -0.84,0.84 -1.65,1.37 -2.77,1.8 -0.85,0.33 -2.13,0.72 -4.47,0.83 -2.54,0.12 -3.3,0.14 -9.74,0.14 -6.43,0 -7.2,-0.02 -9.74,-0.14 -2.35,-0.11 -3.62,-0.5 -4.47,-0.83 -1.13,-0.44 -1.93,-0.96 -2.77,-1.8 -0.84,-0.84 -1.37,-1.65 -1.8,-2.77 -0.33,-0.85 -0.72,-2.13 -0.83,-4.47 -0.12,-2.54 -0.14,-3.3 -0.14,-9.74 0,-6.43 0.02,-7.2 0.14,-9.74 0.11,-2.35 0.5,-3.62 0.83,-4.47 0.44,-1.12 0.96,-1.93 1.8,-2.77 0.84,-0.84 1.65,-1.37 2.77,-1.8 0.85,-0.33 2.13,-0.72 4.47,-0.83 2.54,-0.12 3.3,-0.14 9.74,-0.14z"/>
   <path class="fil1" d="M38.27 46.3c-4.44,0 -8.03,-3.6 -8.03,-8.03 0,-4.44 3.6,-8.03 8.03,-8.03 4.44,0 8.03,3.6 8.03,8.03 0,4.44 -3.6,8.03 -8.03,8.03zm0 -20.41c-6.83,0 -12.37,5.54 -12.37,12.37 0,6.83 5.54,12.37 12.37,12.37 6.83,0 12.37,-5.54 12.37,-12.37 0,-6.83 -5.54,-12.37 -12.37,-12.37z"/>
   <path class="fil1" d="M54.02 25.41c0,1.6 -1.29,2.89 -2.89,2.89 -1.6,0 -2.89,-1.29 -2.89,-2.89 0,-1.6 1.29,-2.89 2.89,-2.89 1.6,0 2.89,1.29 2.89,2.89z"/>
  </g>
 </g>
</svg>
