<?xml version="1.0" encoding="UTF-8"?>
<!DOCTYPE svg PUBLIC "-//W3C//DTD SVG 1.1//EN" "http://www.w3.org/Graphics/SVG/1.1/DTD/svg11.dtd">
<!-- Creator: CorelDRAW -->
<svg xmlns="http://www.w3.org/2000/svg" xml:space="preserve" width="14.4078mm" height="14.4033mm" version="1.1" style="shape-rendering:geometricPrecision; text-rendering:geometricPrecision; image-rendering:optimizeQuality; fill-rule:evenodd; clip-rule:evenodd"
viewBox="0 0 87.12 87.1"
 xmlns:xlink="http://www.w3.org/1999/xlink"
 xmlns:xodm="http://www.corel.com/coreldraw/odm/2003">
 <defs>
  <style type="text/css">
   <![CDATA[
    .fil0 {fill:black}
    .fil1 {fill:#16A34A}
   ]]>
  </style>
 </defs>
 <g id="Capa_x0020_1">
  <metadata id="CorelCorpID_0Corel-Layer"/>
  <path class="fil0" d="M17.36 28.58c-0.88,-4.77 1.73,-7.75 4.48,-9.29 4.69,-2.63 6.67,-1.07 9.28,1.91 1.59,1.82 4.45,5.51 5.53,8.31 1.9,4.92 -4.64,4.62 -4.65,9.03 -0,3.05 3.53,7.6 4.85,9.05 1.87,2.06 5.03,4.28 8.29,5.75 5.49,2.47 5.12,-2.55 8.78,-3.82 2.01,-0.7 4.04,0.3 5.37,1.12 1.4,0.86 2.87,1.94 4.14,2.88 3.29,2.42 6.53,4.16 4.75,8.22 -1.23,2.81 -4.24,5.59 -7.45,6.6 -3.3,1.04 -7.26,-1.18 -10.41,-2.82 -12.12,-6.32 -22.25,-15.23 -28.69,-27.25 -1.26,-2.34 -3.74,-6.87 -4.26,-9.69zm23.46 -28.46c-9.19,0.77 -16.92,3.54 -23.78,8.83 -2.91,2.25 -5.88,5.23 -8.13,8.13 -6.35,8.16 -9.48,18.79 -8.83,29.41 1.07,17.6 12.78,31.9 27.76,37.63 9.16,3.5 18.22,3.92 27.73,1.22 10.97,-3.12 20.05,-10.48 25.78,-20.38 3.74,-6.46 6.59,-16.57 5.57,-24.18 -0.09,-0.7 -0.16,-1.6 -0.23,-2.41 -0.17,-2.01 -0.87,-5.06 -1.39,-6.88 -1.71,-6 -5.48,-13.09 -9.76,-17.4 -3.19,-3.21 -4.95,-4.92 -8.98,-7.45 -7.26,-4.56 -16.61,-7.27 -25.73,-6.51z"/>
  <path class="fil1" d="M17.36 28.58c0.52,2.82 3,7.35 4.26,9.69 6.45,12.02 16.57,20.93 28.69,27.25 3.15,1.64 7.11,3.87 10.41,2.82 3.21,-1.02 6.22,-3.79 7.45,-6.6 1.78,-4.06 -1.46,-5.8 -4.75,-8.22 -1.27,-0.93 -2.74,-2.02 -4.14,-2.88 -1.33,-0.82 -3.36,-1.82 -5.37,-1.12 -3.66,1.28 -3.29,6.29 -8.78,3.82 -3.26,-1.47 -6.42,-3.69 -8.29,-5.75 -1.32,-1.45 -4.85,-6 -4.85,-9.05 0,-4.42 6.54,-4.11 4.65,-9.03 -1.08,-2.8 -3.94,-6.49 -5.53,-8.31 -2.61,-2.98 -4.58,-4.54 -9.28,-1.91 -2.75,1.54 -5.36,4.52 -4.48,9.29z"/>
 </g>
</svg>
