<?xml version="1.0" encoding="UTF-8"?>
<!DOCTYPE svg PUBLIC "-//W3C//DTD SVG 1.1//EN" "http://www.w3.org/Graphics/SVG/1.1/DTD/svg11.dtd">
<!-- Creator: CorelDRAW -->
<svg xmlns="http://www.w3.org/2000/svg" xml:space="preserve" width="16.9322mm" height="13.611mm" version="1.1" style="shape-rendering:geometricPrecision; text-rendering:geometricPrecision; image-rendering:optimizeQuality; fill-rule:evenodd; clip-rule:evenodd"
viewBox="0 0 157.9 126.93"
 xmlns:xlink="http://www.w3.org/1999/xlink"
 xmlns:xodm="http://www.corel.com/coreldraw/odm/2003">
 <defs>
  <style type="text/css">
   <![CDATA[
    .fil0 {fill:#16A34A}
   ]]>
  </style>
 </defs>
 <g id="Capa_x0020_1">
  <metadata id="CorelCorpID_0Corel-Layer"/>
  <path class="fil0" d="M130.23 77.06c0.84,-0.81 0.32,-1.85 -0.32,-2.18 -0.78,-0.4 -2.16,-0.23 -3.06,-0.22 -4.11,0.04 -43.92,-0.33 -45.93,0.31 -0.97,2.77 1.22,2.52 3.61,2.5 3.22,-0.02 44.91,0.36 45.71,-0.41zm5.84 -52.01l-0.15 -7.55c1.01,-0.55 1.55,-1.21 2.75,-1.27 -0.02,9.4 0.91,9.14 -2.6,8.82zm1.44 20.02c-1.54,-0.44 -2.29,-2.88 -3,-4.25 -0.75,-1.46 -1.64,-3.24 -2.24,-4.89 -1.52,-4.2 0.81,-8 4.92,-8.07 3.91,-0.07 6.7,3.53 5.23,7.78 -0.52,1.52 -3.35,8.32 -4.91,9.43zm-15.96 -2.07c-0.61,2.46 -6.42,1.55 -9.25,1.55l-32.33 0c-16.49,0 -14.52,1.15 -14.52,-7.04 0,-17.41 -1.23,-16.74 4.9,-14.95 5.78,1.69 11.08,3.28 16.73,4.92 2.87,0.84 5.72,2.09 8.96,1.18l16.72 -4.94c1.38,-0.42 7.19,-2.5 8.27,-1.75 1.16,0.81 0.61,20.65 0.52,21.03zm16.94 -29.76c-4.63,1.46 -43.32,13.02 -44.94,13 -1.91,-0.02 -42.37,-12.19 -44.91,-13.01 0.85,-0.62 43.21,-13.22 44.92,-13.22 1.8,-0 44.26,12.72 44.93,13.24zm-86.92 104.49c-4.62,2.78 -8.74,5.82 -15.56,5.91 -3.85,0.05 -18.22,-0.71 -20.7,0.81 -6.79,4.18 -5.71,3.52 -10.78,-5.36 -6.36,-11.14 -5.74,-8.62 0.1,-12.74 3.53,-2.49 6.96,-7.38 11.04,-10.29 10.55,-7.52 15.98,1.1 34.52,2.65 2.98,0.25 6.06,2.42 4.25,6.06 -1.45,2.91 -4.74,2.22 -8.19,2.1 -3.37,-0.11 -18.76,-1.14 -20.48,-0.12 -0.63,2.38 0.83,2.35 2.79,2.38 5,0.07 22.36,1.45 25.36,-0.06 3.76,-1.89 3.4,-5.3 4.02,-6.67 0.61,-1.36 17.54,-9.49 21.01,-11.28 2.41,-1.24 5.08,-3.01 7.53,-0.65 2.75,2.66 1.09,5.7 -1.29,7.19l-20.05 11.95c-4.49,2.74 -9.1,5.41 -13.57,8.1zm76.89 -0.82c3.08,0 3.12,-2.77 -0.3,-2.83 -8.75,-0.16 -52.21,-0.25 -54.05,0.37 -0.62,1.83 -0.06,2.46 1.98,2.46l52.37 0zm10.43 -0.55c3.17,2.11 12.51,-2.08 12.77,-10.64 0.25,-8.33 -7.79,-13.22 -12.74,-11.73l0 1.98c2.42,1.39 4.28,0.2 7.29,3.01 5.17,4.82 2.49,14.01 -4.92,15.03 -1.94,0.27 -2.83,0.07 -2.39,2.36zm-90.58 7.17c0.38,-1.2 0.98,-1.23 2.88,-2.31l22.46 -13.41c4.38,-2.64 8.57,-5.09 12.95,-7.74 2.05,-1.24 3.95,-2.86 4.01,-6.3 0.08,-4.35 -2.87,-4.94 -3.11,-6.75 4.28,-0.32 32.62,-0.08 38.38,-0.08 6.27,0 15.63,-0.71 20.88,1.49 12.86,5.39 13.94,21.58 6.61,28.94 -4.96,4.98 -8.98,6.28 -16.17,6.27 -6.95,-0.01 -84.36,0.41 -88.88,-0.11zm94.08 -69c-1.31,-0.27 -4.35,-0.68 -3.52,1.61 0.46,1.28 2.81,0.86 4.41,1.49 8.05,3.18 7.1,14.66 -0.93,16.72 -1.4,0.36 -3.88,-0.06 -3.57,1.91 0.5,3.15 7.38,-0.43 8.4,-1.29 8.09,-6.77 4.64,-18.5 -4.79,-20.44zm-73.8 29.54c-4.01,-0.79 0.29,-2.96 2.68,-6.72 3.87,-6.09 5.07,-16.02 0.55,-22.06 -2.13,-2.85 -7.35,-7.77 -1.38,-7.79l68.37 0c24.31,0 25.26,33.4 3.53,36.47 -4.75,0.67 -12.67,0.21 -17.75,0.21 -7.57,0 -52.17,0.3 -56,-0.11z"/>
 </g>
</svg>
