<?xml version="1.0" encoding="UTF-8"?>
<!DOCTYPE svg PUBLIC "-//W3C//DTD SVG 1.1//EN" "http://www.w3.org/Graphics/SVG/1.1/DTD/svg11.dtd">
<!-- Creator: CorelDRAW -->
<svg xmlns="http://www.w3.org/2000/svg" xml:space="preserve" width="13.9171mm" height="13.9151mm" version="1.1" style="shape-rendering:geometricPrecision; text-rendering:geometricPrecision; image-rendering:optimizeQuality; fill-rule:evenodd; clip-rule:evenodd"
viewBox="0 0 161.9 161.88"
 xmlns:xlink="http://www.w3.org/1999/xlink"
 xmlns:xodm="http://www.corel.com/coreldraw/odm/2003">
 <defs>
  <style type="text/css">
   <![CDATA[
    .fil0 {fill:#D11224}
   ]]>
  </style>
 </defs>
 <g id="Capa_x0020_1">
  <metadata id="CorelCorpID_0Corel-Layer"/>
  <g id="_2224222738000">
   <path class="fil0" d="M84.45 58.11c-0.73,-0.64 -1.43,-1.62 -2.08,-2.42 -5.79,-7.14 -14.22,-16.66 -19.19,-23.55 -3.33,-4.62 -5.98,-7.25 -12.36,-3.64 -2.36,1.33 -3.7,2.65 -5.45,4.33 -5.01,4.77 -6.87,7.85 -0.63,15l22.53 29.89 -18.82 22.61c-1.6,1.93 -3.08,3.84 -4.6,5.79 -1.37,1.76 -3.32,3.94 -4.48,5.9 -3.66,6.2 0.48,11.73 3.75,14.67 2.23,2.02 1.54,2.21 5.47,4.91 1.78,1.22 4.53,3.23 7.36,2.74 2.91,-0.5 7.76,-8.21 9.81,-10.91 3.07,-4.05 5.91,-7.83 9.02,-11.72 1.61,-2 3,-3.78 4.58,-5.81 1.04,-1.34 3.8,-5.27 4.78,-5.86 1.99,1.49 11.52,10.92 14.77,13.88 2.53,2.31 14.1,12.76 15.61,13.41 5.36,2.3 8.67,-2.88 11.85,-6.77 4.38,-5.37 8.09,-8.8 1.14,-15.7l-21.96 -21.68c-1.21,-1.14 -4.28,-3.67 -4.9,-4.85 2.23,-4.1 5.37,-7.5 7.97,-10.92 0.67,-0.88 1.18,-1.22 1.85,-2.11 0.99,-1.32 2.66,-3.02 3.75,-4.19 4.01,-4.27 16.99,-16.81 21.61,-20.52l10.57 -8.97c9.7,-7.85 13.16,-8.41 7.83,-18.2 -5.03,-9.25 -11.98,-2.93 -19.48,1.98 -3.24,2.12 -6.18,4.11 -9.23,6.34 -3.17,2.32 -5.84,4.52 -8.84,6.73l-12.42 10.48c-0.84,0.78 -1.19,1.22 -2.04,1.92 -0.65,0.54 -1.42,1.2 -2.08,1.88 -2.72,2.8 -5.3,4.89 -7.98,7.59 -1.68,1.7 -6.67,7.17 -7.72,7.78z"/>
   <path class="fil0" d="M151.71 41.29c-1.28,0.6 -7.14,5.6 -7.77,6.51 1.06,3.02 2.9,5.75 4.71,11.48 1.34,4.25 2.34,8.56 2.88,13.25 1.17,10.1 0.11,21.2 -2.62,29.34 -5.56,16.57 -14.19,27.77 -27.72,37.6 -20.5,14.9 -52.14,17.11 -75.8,2.93 -3.69,-2.21 -6.46,-4.17 -9.56,-6.6 -22.85,-17.94 -33.29,-53.64 -20.2,-82.66 10.21,-22.64 29.96,-39.21 55.39,-42.59 16.07,-2.14 27.46,0.55 41.14,6.53 1.27,0.55 1.53,0.28 2.46,-0.44l7.18 -5.46c-0.28,-0.35 -0.05,-0.14 -0.51,-0.5 -1.65,-1.27 -10.18,-4.92 -11.86,-5.56 -4.47,-1.72 -9.4,-3.04 -14.36,-3.91 -30.93,-5.4 -60.76,7.83 -77.95,29.94 -10.62,13.66 -18.73,33.25 -16.83,56.35 2.12,25.78 15.64,46.24 32.79,58.7 20.86,15.17 47.21,19.69 72.04,12 14.42,-4.46 24.11,-11.31 33.97,-20.97 3.08,-3.01 5.64,-6.22 8.31,-10 4.78,-6.77 9.31,-15.74 11.67,-24.92 2.72,-10.55 3.71,-21.82 1.96,-33.38 -1.21,-8.04 -3.17,-14.13 -6.25,-21.25 -0.91,-2.11 -2.2,-4.37 -3.07,-6.39z"/>
  </g>
  <g id="_2224222740160">
   <path class="fil0" d="M84.45 58.11c-0.73,-0.64 -1.43,-1.62 -2.08,-2.42 -5.79,-7.14 -14.22,-16.66 -19.19,-23.55 -3.33,-4.62 -5.98,-7.25 -12.36,-3.64 -2.36,1.33 -3.7,2.65 -5.45,4.33 -5.01,4.77 -6.87,7.85 -0.63,15l22.53 29.89 -18.82 22.61c-1.6,1.93 -3.08,3.84 -4.6,5.79 -1.37,1.76 -3.32,3.94 -4.48,5.9 -3.66,6.2 0.48,11.73 3.75,14.67 2.23,2.02 1.54,2.21 5.47,4.91 1.78,1.22 4.53,3.23 7.36,2.74 2.91,-0.5 7.76,-8.21 9.81,-10.91 3.07,-4.05 5.91,-7.83 9.02,-11.72 1.61,-2 3,-3.78 4.58,-5.81 1.04,-1.34 3.8,-5.27 4.78,-5.86 1.99,1.49 11.52,10.92 14.77,13.88 2.53,2.31 14.1,12.76 15.61,13.41 5.36,2.3 8.67,-2.88 11.85,-6.77 4.38,-5.37 8.09,-8.8 1.14,-15.7l-21.96 -21.68c-1.21,-1.14 -4.28,-3.67 -4.9,-4.85 2.23,-4.1 5.37,-7.5 7.97,-10.92 0.67,-0.88 1.18,-1.22 1.85,-2.11 0.99,-1.32 2.66,-3.02 3.75,-4.19 4.01,-4.27 16.99,-16.81 21.61,-20.52l10.57 -8.97c9.7,-7.85 13.16,-8.41 7.83,-18.2 -5.03,-9.25 -11.98,-2.93 -19.48,1.98 -3.24,2.12 -6.18,4.11 -9.23,6.34 -3.17,2.32 -5.84,4.52 -8.84,6.73l-12.42 10.48c-0.84,0.78 -1.19,1.22 -2.04,1.92 -0.65,0.54 -1.42,1.2 -2.08,1.88 -2.72,2.8 -5.3,4.89 -7.98,7.59 -1.68,1.7 -6.67,7.17 -7.72,7.78z"/>
   <path class="fil0" d="M151.71 41.29c-1.28,0.6 -7.14,5.6 -7.77,6.51 1.06,3.02 2.9,5.75 4.71,11.48 1.34,4.25 2.34,8.56 2.88,13.25 1.17,10.1 0.11,21.2 -2.62,29.34 -5.56,16.57 -14.19,27.77 -27.72,37.6 -20.5,14.9 -52.14,17.11 -75.8,2.93 -3.69,-2.21 -6.46,-4.17 -9.56,-6.6 -22.85,-17.94 -33.29,-53.64 -20.2,-82.66 10.21,-22.64 29.96,-39.21 55.39,-42.59 16.07,-2.14 27.46,0.55 41.14,6.53 1.27,0.55 1.53,0.28 2.46,-0.44l7.18 -5.46c-0.28,-0.35 -0.05,-0.14 -0.51,-0.5 -1.65,-1.27 -10.18,-4.92 -11.86,-5.56 -4.47,-1.72 -9.4,-3.04 -14.36,-3.91 -30.93,-5.4 -60.76,7.83 -77.95,29.94 -10.62,13.66 -18.73,33.25 -16.83,56.35 2.12,25.78 15.64,46.24 32.79,58.7 20.86,15.17 47.21,19.69 72.04,12 14.42,-4.46 24.11,-11.31 33.97,-20.97 3.08,-3.01 5.64,-6.22 8.31,-10 4.78,-6.77 9.31,-15.74 11.67,-24.92 2.72,-10.55 3.71,-21.82 1.96,-33.38 -1.21,-8.04 -3.17,-14.13 -6.25,-21.25 -0.91,-2.11 -2.2,-4.37 -3.07,-6.39z"/>
  </g>
 </g>
</svg>
