<?xml version="1.0" encoding="UTF-8"?>
<!DOCTYPE svg PUBLIC "-//W3C//DTD SVG 1.1//EN" "http://www.w3.org/Graphics/SVG/1.1/DTD/svg11.dtd">
<!-- Creator: CorelDRAW -->
<svg xmlns="http://www.w3.org/2000/svg" xml:space="preserve" width="17.2516mm" height="16.2527mm" version="1.1" style="shape-rendering:geometricPrecision; text-rendering:geometricPrecision; image-rendering:optimizeQuality; fill-rule:evenodd; clip-rule:evenodd"
viewBox="0 0 166 156.39"
 xmlns:xlink="http://www.w3.org/1999/xlink"
 xmlns:xodm="http://www.corel.com/coreldraw/odm/2003">
 <defs>
  <style type="text/css">
   <![CDATA[
    .fil0 {fill:#16A34A}
   ]]>
  </style>
 </defs>
 <g id="Capa_x0020_1">
  <metadata id="CorelCorpID_0Corel-Layer"/>
  <path class="fil0" d="M102.76 25.3c0,3.98 2.34,3.24 7.14,3.24l0 48 -4.22 0 0 -38.6c0,-1.6 -1.32,-2.92 -2.92,-2.92l-18.81 0c-1.6,0 -2.92,1.32 -2.92,2.92l0 38.6 -4.22 0 0 -23.35c0,-0.78 -1.17,-1.95 -1.95,-1.95l-20.43 0c-0.78,0 -1.95,1.16 -1.95,1.95l0 23.35c-3.02,0 -7.31,-0.5 -8.69,0.71 -2.16,1.89 -0.8,4.8 2.53,4.8l94.06 0c5.06,0 4.18,-5.51 0.65,-5.51l-6.81 0 0 -48c4.54,0 7.14,0.68 7.14,-2.92 0,-1.02 -0.26,-1.24 -0.72,-1.87l-12.9 -17.92c-2.35,-3.34 -3.3,-5.84 -5.84,-5.84 -2.01,0 -3.41,2.93 -5.38,5.65l-9.22 12.84c-0.63,0.89 -4.54,6.12 -4.54,6.81zm10.7 113.83c-2.57,0.73 -4.62,5.63 -19.14,4.88 -7.79,-0.4 -25.35,-7.5 -38.94,-9.39 -3.63,-0.51 -7.89,-0.79 -10.69,0.62l-6.15 2.93c-0.76,0.38 -1.53,0.61 -2.27,0.97 -0.03,-1.46 -3.57,-14 -4.08,-16.03 -0.69,-2.76 -1.46,-5.2 -2.15,-7.91 -0.47,-1.83 -1.47,-6.33 -2.2,-7.85 1.35,-0.36 3.81,-2.32 4.91,-3.2 1.71,-1.36 3.01,-2.36 4.99,-3.61 4.36,-3.35 15.7,-6.53 21.1,-5.7 5.29,0.81 5.86,0.3 11.45,2.18 3.44,1.16 6.36,2.47 9.89,3.73 6.8,2.43 13.52,4.75 20.7,6.54l13.9 2.97c3.45,0.47 3.37,-0.02 5.26,1.87 0.78,0.78 1.25,0.97 1.53,2.04 -1,1.49 -3.68,2.34 -5.58,2.85 -3.41,0.93 -3.93,0.78 -7.66,0.33 -9.64,-1.17 -22.39,-5.04 -30.37,-3.65 -9.44,1.64 -5.97,8.21 -1.58,6.21 5.02,-2.27 10.03,-0.84 15.11,0 5.05,0.83 9.88,1.93 14.88,2.63 6.35,0.9 16.82,0.09 19.9,-5.62 1.35,-2.51 0.59,-4.6 -0.49,-6.66 3.69,-0.86 8.16,-5.4 10.62,-7.87 3.3,-3.3 6.67,-5.61 10.41,-8.4 1.36,-1.01 4.51,-3.1 6.23,-3.14 2.1,-0.05 6.21,0.95 7.21,2.15 1.51,1.82 -1.28,4.6 -2.24,6.04 -4.36,6.56 -12.53,19.28 -18.62,23.55 -7.74,5.42 -14.92,9.81 -22.96,14.66 -1.04,0.62 -2.3,0.96 -2.98,1.87zm-79.79 -42.32c-1.34,0.7 -2.4,1.64 -3.52,2.48 -1.18,0.88 -2.12,2.15 -3.61,2.55 -1.95,-4.06 -2.43,-3.13 -11.81,-0.46 -14.27,4.05 -16.26,2.12 -13.85,10.23l11.03 41.19c0.84,2.95 1.16,4.21 4.98,3.29l20.36 -5.59c2.52,-1.38 1.23,-3.66 0.65,-6.17l8.64 -4.01c5.86,-2.85 25.34,3.67 31,5.24 9.88,2.74 20.68,6.46 31.95,1.93 4.71,-1.89 5.23,-3.24 8.21,-4.78 6.2,-3.38 15.74,-9.64 21.52,-13.49 0.96,-0.64 1.64,-1.05 2.51,-1.7 0.92,-0.68 1.73,-1.19 2.62,-1.92 4.36,-3.59 10.5,-12.18 13.74,-17.07 2.35,-3.55 7.48,-9.54 7.91,-13.72l0 -1.32c-0.67,-7.58 -12.64,-9.1 -16.87,-7.22l-5.38 3.38c-1.94,1.3 -3.49,2.4 -5.25,3.84 -3.34,2.74 -6.21,5.22 -9.23,8.28 -1.38,1.39 -3.15,2.82 -5.31,3.45 -7.17,2.07 -34.25,-6.51 -42.2,-9.63 -8.4,-3.3 -11.08,-4.61 -20.34,-5.94 -8.6,-1.24 -15.15,1.07 -22.06,3.94 -1.34,0.56 -4.86,2.47 -5.7,3.22z"/>
 </g>
</svg>
