<?xml version="1.0" encoding="UTF-8"?>
<!DOCTYPE svg PUBLIC "-//W3C//DTD SVG 1.1//EN" "http://www.w3.org/Graphics/SVG/1.1/DTD/svg11.dtd">
<!-- Creator: CorelDRAW -->
<svg xmlns="http://www.w3.org/2000/svg" xml:space="preserve" width="14.8496mm" height="21.3974mm" version="1.1" style="shape-rendering:geometricPrecision; text-rendering:geometricPrecision; image-rendering:optimizeQuality; fill-rule:evenodd; clip-rule:evenodd"
viewBox="0 0 192.2 276.95"
 xmlns:xlink="http://www.w3.org/1999/xlink"
 xmlns:xodm="http://www.corel.com/coreldraw/odm/2003">
 <defs>
  <style type="text/css">
   <![CDATA[
    .fil0 {fill:#16A34A}
   ]]>
  </style>
 </defs>
 <g id="Capa_x0020_1">
  <metadata id="CorelCorpID_0Corel-Layer"/>
  <g id="_1522270644320">
   <path class="fil0" d="M166.78 26.57c0.01,13.35 0.64,27.2 -2.19,39.86 -2.36,10.58 -8.58,22.77 -14.35,27.86 -4.59,4.04 -4.8,5.3 -10.79,10.33l-16.51 15.17c-2.13,1.73 -3.69,2.99 -5.65,4.92 -8.2,8.06 -8.18,21.15 -0.7,29.63l22.29 19.96c25.05,20.68 27.83,37.99 27.8,75.66 -0.76,1.72 0.32,1.02 -2.8,1.31l-102.65 -0.08c-8.18,0 -29.18,1.01 -35.86,-0.35 -0.66,-2.82 -1.03,-20.12 0.26,-23.64 -0.43,-9.61 3.36,-21.33 7.02,-28.7 5.15,-10.39 16.53,-20.96 25.55,-28.78 1.78,-1.54 3.3,-2.51 4.95,-4.14 2.02,-1.98 2.53,-2.75 4.6,-4.43 28.31,-23.01 6.37,-36.03 -5.31,-47.69 -6.23,-6.21 -16.96,-14.02 -22.94,-21.58 -8,-10.12 -14.58,-26.7 -13.7,-39.7 -1.49,-3.24 -1.46,-21.81 -0.43,-26.19 5.89,-1.2 113.78,-0.28 133.92,-0.35 5.03,-0.02 6.37,-0.78 7.49,0.93zm-166.66 -21.3l0 15.09c0,10.45 11.5,3.25 16.1,5.9 1.7,0.98 0.85,17.9 0.91,21.26 0.7,36.89 13.09,47.29 34.26,67.16 2.11,1.98 4.05,3.16 6.1,5.26 7.19,7.35 21.35,15.01 12.87,27.2 -1.89,2.71 -3.62,3.27 -5.78,5.57 -2.49,2.64 -3.4,3.26 -5.92,5.4l-23.38 21.86c-6.75,8.21 -11.86,15.68 -15.38,29.15 -5.02,19.22 -1.21,34.7 -3.39,41.7 -5.18,0 -11.29,-0.54 -15.6,1.12 -1.34,3.71 -0.78,14.72 -0.78,19.62 0,4.62 1.51,5.39 6.05,5.39l179.53 0c8.16,0 6.31,-3.32 6.31,-19.72 0,-7.97 -2.39,-6.42 -16.92,-6.42 -0.06,-29.63 0.7,-52.05 -21.91,-74.23 -7.11,-6.97 -13.61,-12.36 -20.62,-19.33 -11.65,-11.58 -23.16,-15.87 -1.06,-34.18l21.06 -18.94c29.46,-26.91 19.47,-64.03 22.92,-78.11 5.08,0 11.57,0.65 15.77,-0.83 1.47,-8.92 0.81,-9.74 0.75,-19.16 0,-5.36 -1.05,-6.03 -6.31,-6.03l-179.53 0c-4.65,0 -6.05,0.66 -6.05,5.28z"/>
   <path class="fil0" d="M146.47 241.76c7.06,0 7.05,-1.85 6.24,-9.01 -0.46,-4.13 -1.47,-8.39 -2.78,-12.16 -17.78,-50.93 -89.32,-50.97 -107.6,-0.36 -1.36,3.76 -2.33,7.85 -2.86,12.17 -0.8,6.49 -1.02,9.37 5.92,9.37l101.08 0z"/>
   <path class="fil0" d="M150.36 81.09c1.55,-2.85 0.64,-6.99 -3.12,-7.11 -2.19,-0.07 -5.96,2.32 -7.95,3.3 -23.15,11.53 -34.47,0.39 -54.68,-2.56 -6.77,-0.99 -13.84,-0.65 -20.34,0.69 -26.22,5.41 -19.04,11.07 -10.19,19.24 3.97,3.67 7.43,6.85 11.33,10.56 4.11,3.91 7.34,7.5 11.4,11.23 3.57,3.28 8.33,6.41 10.74,11.93 2.49,5.7 1.56,13.49 10.39,11.68 5.99,-1.23 4.77,-9.03 7.94,-13.92 3.47,-5.35 7.4,-7.12 11.23,-11.42 4.28,-4.8 7.15,-7.2 11.52,-11.1 2.55,-2.27 3.06,-2.65 5.71,-5.59 2.45,-2.73 12.55,-10.53 16.02,-16.92z"/>
   <path class="fil0" d="M25.8 52.19l-0.12 -25.79 141.1 0.17c-1.11,-1.71 -2.46,-0.95 -7.49,-0.93 -20.14,0.08 -128.04,-0.85 -133.92,0.35 -1.03,4.39 -1.06,22.95 0.43,26.19z"/>
   <path class="fil0" d="M166.68 249.97c-5.44,1.32 -131.75,0.47 -140.96,0.47l-0.1 -23.24c-1.29,3.52 -0.92,20.83 -0.26,23.64 6.68,1.36 27.68,0.35 35.86,0.35l102.65 0.08c3.12,-0.29 2.04,0.41 2.8,-1.31z"/>
   <path class="fil0" d="M99.75 156.43c2.3,-4.86 -4,-9.23 -6.94,-4.83 -3.72,5.57 5.24,8.43 6.94,4.83z"/>
   <path class="fil0" d="M92.13 171.24c0.85,5.1 9.11,3.3 7.87,-1.85 -1.22,-5.11 -8.79,-3.66 -7.87,1.85z"/>
  </g>
 </g>
</svg>
