<?xml version="1.0" encoding="UTF-8"?>
<!DOCTYPE svg PUBLIC "-//W3C//DTD SVG 1.1//EN" "http://www.w3.org/Graphics/SVG/1.1/DTD/svg11.dtd">
<!-- Creator: CorelDRAW -->
<svg xmlns="http://www.w3.org/2000/svg" xml:space="preserve" width="14.4078mm" height="14.4033mm" version="1.1" style="shape-rendering:geometricPrecision; text-rendering:geometricPrecision; image-rendering:optimizeQuality; fill-rule:evenodd; clip-rule:evenodd"
viewBox="0 0 87.12 87.1"
 xmlns:xlink="http://www.w3.org/1999/xlink"
 xmlns:xodm="http://www.corel.com/coreldraw/odm/2003">
 <defs>
  <style type="text/css">
   <![CDATA[
    .fil0 {fill:black}
    .fil1 {fill:#008F00}
   ]]>
  </style>
 </defs>
 <g id="Capa_x0020_1">
  <metadata id="CorelCorpID_0Corel-Layer"/>
  <path class="fil0" d="M40.82 0.13c-9.19,0.77 -16.92,3.54 -23.78,8.83 -2.91,2.25 -5.88,5.23 -8.13,8.13 -6.35,8.16 -9.48,18.79 -8.83,29.41 1.07,17.6 12.78,31.9 27.76,37.63 9.16,3.5 18.22,3.92 27.73,1.22 10.97,-3.12 20.05,-10.48 25.78,-20.38 3.74,-6.46 6.59,-16.57 5.57,-24.18 -0.09,-0.7 -0.16,-1.6 -0.23,-2.41 -0.17,-2.01 -0.87,-5.06 -1.39,-6.88 -1.71,-6 -5.48,-13.09 -9.76,-17.4 -3.19,-3.21 -4.95,-4.92 -8.98,-7.45 -7.26,-4.56 -16.61,-7.27 -25.73,-6.51z"/>
  <path class="fil1" d="M32.53 41.94c-0.42,0.4 -0.78,0.85 -1.14,1.3 -3.04,3.78 -6.67,7.88 -9.82,11.69 -0.6,0.72 -6.33,7.44 -6.5,7.84l56.65 -0.02c-0.19,-0.37 -0.77,-1 -1.09,-1.38l-16.03 -19.43c-0.5,0.33 -0.76,0.68 -1.23,1.09 -0.42,0.35 -0.83,0.76 -1.26,1.11l-3.07 2.78c-0.23,0.21 -0.4,0.3 -0.62,0.51 -3.07,2.79 -6.76,2.69 -9.79,-0.12l-6.09 -5.37zm-6.42 3.12c0.56,-0.8 3.71,-5.06 3.85,-5.54 -0.69,-0.45 -3.97,-3.58 -4.96,-4.38l-4.87 -4.36c-0.65,-0.66 -1.32,-1.18 -1.97,-1.75l-2.89 -2.63c-0.26,-0.21 -0.73,-0.71 -1,-0.83l0.01 35.99 11.81 -16.48zm-11.25 -20.57c0.5,0.56 1.1,0.95 1.69,1.41 0.59,0.47 1.14,0.95 1.75,1.4l17.52 13.91c1.21,0.95 2.3,1.84 3.52,2.79 1.01,0.78 2.27,1.95 4.23,1.95 2.01,0 3.16,-1.15 4.28,-2.02l24.43 -19.44c-1.47,-0.27 -5.45,-0.06 -7.19,-0.06l-21.51 0c-2.12,0 -27.31,-0.16 -28.71,0.06zm42.15 15.28c0.17,0.4 0.71,1.08 0.98,1.46 0.34,0.49 0.62,0.89 0.98,1.39l11.89 16.72c0.32,0.47 0.67,0.94 0.99,1.38 0.27,0.38 0.66,1.03 1,1.32l-0.01 -36.49c-0.26,0.14 -0.77,0.66 -1.04,0.88l-14.8 13.33z"/>
 </g>
</svg>
