<?xml version="1.0" encoding="UTF-8"?>
<!DOCTYPE svg PUBLIC "-//W3C//DTD SVG 1.1//EN" "http://www.w3.org/Graphics/SVG/1.1/DTD/svg11.dtd">
<!-- Creator: CorelDRAW -->
<svg xmlns="http://www.w3.org/2000/svg" xml:space="preserve" width="8.9818mm" height="8.979mm" version="1.1" style="shape-rendering:geometricPrecision; text-rendering:geometricPrecision; image-rendering:optimizeQuality; fill-rule:evenodd; clip-rule:evenodd"
viewBox="0 0 504.56 504.4"
 xmlns:xlink="http://www.w3.org/1999/xlink"
 xmlns:xodm="http://www.corel.com/coreldraw/odm/2003">
 <defs>
  <style type="text/css">
   <![CDATA[
    .fil0 {fill:black}
   ]]>
  </style>
 </defs>
 <g id="Capa_x0020_1">
  <metadata id="CorelCorpID_0Corel-Layer"/>
  <path class="fil0" d="M276.12 171.3c36.69,-6.04 61.55,55.31 39.85,56.07 -9.36,0.33 -8.09,-11.63 -10.31,-18.26 -2.38,-7.12 -6.62,-12.63 -11.63,-16.19 -6.75,-4.79 -12.29,-4.56 -20.63,-7.06 -9.17,-2.74 -6.49,-13.04 2.72,-14.57zm-175.58 -5.76c-5.12,-27.62 10.02,-44.86 25.95,-53.78 27.18,-15.22 38.63,-6.22 53.72,11.07 9.21,10.54 25.78,31.9 32.04,48.13 10.99,28.5 -26.89,26.72 -26.91,52.31 -0.02,17.68 20.43,44.01 28.07,52.42 10.82,11.91 29.12,24.79 47.99,33.28 31.8,14.3 29.63,-14.75 50.85,-22.14 11.66,-4.06 23.39,1.71 31.1,6.47 8.09,4.98 16.63,11.26 23.98,16.67 19.05,14.02 37.83,24.1 27.51,47.61 -7.15,16.29 -24.54,32.35 -43.15,38.24 -19.09,6.05 -42.05,-6.85 -60.29,-16.36 -70.19,-36.58 -128.83,-88.2 -166.17,-157.78 -7.28,-13.57 -21.64,-39.79 -24.68,-56.14zm253.49 72.23c-10.25,3.4 -10.81,-5.27 -11.66,-13.14 -0.72,-6.64 -2.69,-14.77 -4.55,-20.93 -4.1,-13.58 -11.15,-25.75 -19.2,-32.17 -21.79,-17.41 -38.4,-15.97 -55.71,-21.18 -7.58,-2.28 -8.21,-11.55 -0.96,-14.72 7.66,-3.36 34.3,4.78 40.9,7.76 59.66,26.93 61.35,91.02 51.19,94.37zm37.17 13.7c-14.12,6.39 -11.75,-14.68 -13.2,-23.7 -8.52,-53.06 -30.87,-88 -83.75,-104.58 -12.82,-4.02 -45.03,-8.82 -46.53,-10.16 -2.18,-1.95 -3.89,-8.74 2.09,-11.85 12.56,-6.54 52.69,6.13 63.12,10.87 33.67,15.3 59.68,43.06 73.46,77.29 3.63,9.03 15.88,57.14 4.82,62.14zm-154.79 -250.72c-53.2,4.45 -98,20.49 -137.71,51.14 -16.85,13 -34.03,30.31 -47.06,47.06 -36.78,47.26 -54.9,108.82 -51.16,170.31 6.2,101.91 74.02,184.77 160.75,217.92 53.05,20.28 105.53,22.69 160.56,7.04 63.54,-18.07 116.09,-60.7 149.29,-118.04 21.67,-37.43 38.15,-95.98 32.26,-140.03 -0.54,-4.04 -0.93,-9.3 -1.34,-13.95 -1,-11.64 -5.05,-29.31 -8.06,-39.86 -9.92,-34.76 -31.77,-75.82 -56.51,-100.76 -18.46,-18.62 -28.69,-28.49 -52.02,-43.13 -42.06,-26.4 -96.22,-42.11 -149.01,-37.69z"/>
 </g>
</svg>
