<?xml version="1.0" encoding="UTF-8"?>
<!DOCTYPE svg PUBLIC "-//W3C//DTD SVG 1.1//EN" "http://www.w3.org/Graphics/SVG/1.1/DTD/svg11.dtd">
<!-- Creator: CorelDRAW -->
<svg xmlns="http://www.w3.org/2000/svg" xml:space="preserve" width="8.9717mm" height="8.9717mm" version="1.1" style="shape-rendering:geometricPrecision; text-rendering:geometricPrecision; image-rendering:optimizeQuality; fill-rule:evenodd; clip-rule:evenodd"
viewBox="0 0 59.64 59.64"
 xmlns:xlink="http://www.w3.org/1999/xlink"
 xmlns:xodm="http://www.corel.com/coreldraw/odm/2003">
 <defs>
  <style type="text/css">
   <![CDATA[
    .fil0 {fill:#010201;fill-rule:nonzero}
    .fil1 {fill:white;fill-rule:nonzero}
   ]]>
  </style>
 </defs>
 <g id="Capa_x0020_1">
  <metadata id="CorelCorpID_0Corel-Layer"/>
  <g id="_2115510955968">
   <path class="fil0" d="M59.64 29.82c0,16.47 -13.35,29.82 -29.82,29.82 -16.47,0 -29.82,-13.35 -29.82,-29.82 0,-16.47 13.35,-29.82 29.82,-29.82 16.47,0 29.82,13.35 29.82,29.82z"/>
   <path class="fil1" d="M46.53 19.97c0,-0.17 -0.01,-0.18 -0.19,-0.18 -0.44,0 -0.87,-0.05 -1.3,-0.11 -1.56,-0.24 -6.62,-2.89 -7.48,-7.23 -0.02,-0.08 -0.21,-1.16 -0.21,-1.62 0,-0.21 -0,-0.21 -0.2,-0.21 -0.05,-0 -0.09,0 -0.14,0 -1.98,0 -3.96,-0 -5.94,0 -0.4,0 -0.34,-0.05 -0.34,0.35 -0,8.59 -0,17.18 0,25.77 0,0.32 -0.01,0.64 -0.07,0.95 -0.3,1.66 -1.15,2.96 -2.59,3.85 -1.25,0.77 -2.6,0.99 -4.04,0.7 -0.45,-0.09 -0.88,-0.26 -1.3,-0.43 -0.04,-0.03 -0.07,-0.06 -0.1,-0.09 -0.14,-0.12 -0.3,-0.22 -0.45,-0.33 -1.83,-1.27 -2.7,-3.03 -2.44,-5.24 0.27,-2.24 1.55,-3.75 3.67,-4.54 0.63,-0.23 1.3,-0.33 1.97,-0.29 0.44,0.02 0.87,0.08 1.29,0.2 0.15,0.04 0.23,-0.01 0.23,-0.16 0,-0.06 0,-0.11 0,-0.16 0,-1.54 -0.06,-4.91 -0.07,-4.92 0,-0.44 0,-0.89 0.01,-1.33 0,-0.13 -0.06,-0.15 -0.17,-0.16 -0.8,-0.1 -1.6,-0.11 -2.4,-0.05 -1.11,0.08 -2.19,0.31 -3.23,0.69 -1.67,0.6 -3.13,1.53 -4.4,2.77 -1.09,1.06 -1.94,2.29 -2.56,3.68 -0.6,1.33 -0.94,2.72 -1.04,4.17 -0.04,0.63 -0.03,1.26 0.02,1.89 0.08,0.87 0.25,1.72 0.51,2.56 0.76,2.39 2.15,4.36 4.11,5.91 0.2,0.16 0.39,0.33 0.63,0.43l0 0c0.1,0.09 0.2,0.18 0.3,0.27 0.32,0.24 0.66,0.45 1.01,0.62 2.2,1.09 4.52,1.53 6.96,1.23 3.17,-0.39 5.81,-1.79 7.89,-4.21 1.96,-2.28 2.91,-4.95 2.93,-7.94 0.02,-4.28 0.01,-8.56 0.01,-12.83 0,-0.1 -0.06,-0.25 0.05,-0.3 0.09,-0.04 0.18,0.08 0.26,0.13 1.59,1.05 3.31,1.8 5.17,2.23 1.08,0.25 2.18,0.4 3.29,0.4 0.35,0 0.4,-0.02 0.4,-0.37 0,-1.52 -0.08,-5.67 -0.08,-6.07z"/>
  </g>
 </g>
</svg>
