<?xml version="1.0" encoding="UTF-8"?>
<!DOCTYPE svg PUBLIC "-//W3C//DTD SVG 1.1//EN" "http://www.w3.org/Graphics/SVG/1.1/DTD/svg11.dtd">
<!-- Creator: CorelDRAW -->
<svg xmlns="http://www.w3.org/2000/svg" xml:space="preserve" width="14.4078mm" height="14.4032mm" version="1.1" style="shape-rendering:geometricPrecision; text-rendering:geometricPrecision; image-rendering:optimizeQuality; fill-rule:evenodd; clip-rule:evenodd"
viewBox="0 0 87.12 87.1"
 xmlns:xlink="http://www.w3.org/1999/xlink"
 xmlns:xodm="http://www.corel.com/coreldraw/odm/2003">
 <defs>
  <style type="text/css">
   <![CDATA[
    .fil0 {fill:black}
    .fil1 {fill:#008F00}
   ]]>
  </style>
 </defs>
 <g id="Capa_x0020_1">
  <metadata id="CorelCorpID_0Corel-Layer"/>
  <path class="fil0" d="M40.82 0.13c-9.19,0.77 -16.92,3.54 -23.78,8.83 -2.91,2.25 -5.88,5.23 -8.13,8.13 -6.35,8.16 -9.48,18.79 -8.83,29.41 1.07,17.6 12.78,31.9 27.76,37.63 9.16,3.5 18.22,3.92 27.73,1.22 10.97,-3.12 20.05,-10.48 25.78,-20.38 3.74,-6.46 6.59,-16.57 5.57,-24.18 -0.09,-0.7 -0.16,-1.6 -0.23,-2.41 -0.17,-2.01 -0.87,-5.06 -1.39,-6.88 -1.71,-6 -5.48,-13.09 -9.76,-17.4 -3.19,-3.21 -4.95,-4.92 -8.98,-7.45 -7.26,-4.56 -16.61,-7.27 -25.73,-6.51z"/>
  <path class="fil1" d="M49.99 64.6c3.74,0.78 6.25,2.21 6.25,3.86 0,2.47 -5.68,4.48 -12.68,4.48 -7,0 -12.68,-2 -12.68,-4.48 0,-1.64 2.51,-3.08 6.25,-3.86 1.6,1.63 3.02,2.9 4.03,3.75 0.67,0.57 1.52,0.88 2.4,0.88 0.88,0 1.73,-0.31 2.4,-0.88 1.01,-0.86 2.43,-2.13 4.03,-3.75zm-6.43 -43.26c6.94,0 12.57,5.63 12.57,12.57 0,6.94 -5.63,12.57 -12.57,12.57 -6.94,0 -12.57,-5.63 -12.57,-12.57 0,-6.94 5.63,-12.57 12.57,-12.57zm0 -7.18c10.83,0 19.61,8.78 19.61,19.61 0,16.88 -13.36,29.67 -18.03,33.62 -0.91,0.78 -2.26,0.78 -3.17,0 -4.67,-3.95 -18.03,-16.73 -18.03,-33.62 0,-10.83 8.78,-19.61 19.61,-19.61z"/>
 </g>
</svg>
