<?xml version="1.0" encoding="UTF-8"?>
<!DOCTYPE svg PUBLIC "-//W3C//DTD SVG 1.1//EN" "http://www.w3.org/Graphics/SVG/1.1/DTD/svg11.dtd">
<!-- Creator: CorelDRAW -->
<svg xmlns="http://www.w3.org/2000/svg" xml:space="preserve" width="8.9717mm" height="8.9717mm" version="1.1" style="shape-rendering:geometricPrecision; text-rendering:geometricPrecision; image-rendering:optimizeQuality; fill-rule:evenodd; clip-rule:evenodd"
viewBox="0 0 106.8 106.8"
 xmlns:xlink="http://www.w3.org/1999/xlink"
 xmlns:xodm="http://www.corel.com/coreldraw/odm/2003">
 <defs>
  <style type="text/css">
   <![CDATA[
    .fil1 {fill:white}
    .fil0 {fill:#010201;fill-rule:nonzero}
   ]]>
  </style>
 </defs>
 <g id="Capa_x0020_1">
  <metadata id="CorelCorpID_0Corel-Layer"/>
  <g id="_2115505869904">
   <path class="fil0" d="M106.8 53.4c0,29.49 -23.91,53.4 -53.4,53.4 -29.49,0 -53.4,-23.91 -53.4,-53.4 0,-29.49 23.91,-53.4 53.4,-53.4 29.49,0 53.4,23.91 53.4,53.4z"/>
   <path class="fil1" d="M70.57 59.39c-0.85,-0.42 -5.01,-2.47 -5.78,-2.75 -0.78,-0.28 -1.34,-0.42 -1.9,0.42 -0.56,0.85 -2.19,2.75 -2.68,3.32 -0.49,0.56 -0.99,0.63 -1.83,0.21 -0.85,-0.42 -3.57,-1.32 -6.81,-4.2 -2.52,-2.24 -4.21,-5.01 -4.71,-5.86 -0.49,-0.85 -0.05,-1.3 0.37,-1.73 0.38,-0.38 0.85,-0.99 1.27,-1.48 0.42,-0.49 0.56,-0.85 0.85,-1.41 0.28,-0.56 0.14,-1.06 -0.07,-1.48 -0.21,-0.42 -1.9,-4.59 -2.61,-6.28 -0.69,-1.65 -1.38,-1.43 -1.91,-1.45 -0.49,-0.02 -1.06,-0.03 -1.62,-0.03 -0.56,0 -1.48,0.21 -2.26,1.06 -0.78,0.85 -2.96,2.9 -2.96,7.06 0,4.16 3.03,8.19 3.46,8.75 0.42,0.57 5.97,9.11 14.46,12.78 2.02,0.87 3.6,1.39 4.83,1.78 2.03,0.64 3.87,0.55 5.33,0.34 1.62,-0.24 5.01,-2.05 5.71,-4.02 0.71,-1.98 0.71,-3.67 0.49,-4.02 -0.21,-0.35 -0.78,-0.57 -1.62,-0.99zm-15.44 21.08l-0.01 0c-5.05,-0 -10.01,-1.36 -14.33,-3.92l-1.03 -0.61 -10.66 2.8 2.85 -10.39 -0.67 -1.06c-2.82,-4.48 -4.31,-9.66 -4.3,-14.98 0.01,-15.52 12.64,-28.14 28.17,-28.14 7.52,0 14.59,2.93 19.91,8.25 5.32,5.32 8.24,12.39 8.24,19.91 -0.01,15.52 -12.64,28.15 -28.16,28.15zm23.96 -52.1c-6.39,-6.4 -14.9,-9.93 -23.96,-9.93 -18.67,0 -33.87,15.19 -33.88,33.86 -0,5.97 1.56,11.79 4.52,16.93l-4.81 17.55 17.96 -4.71c4.95,2.7 10.52,4.12 16.19,4.12l0.01 0c0,0 -0,0 0,0 18.67,0 33.87,-15.19 33.87,-33.86 0,-9.05 -3.52,-17.56 -9.91,-23.96z"/>
  </g>
 </g>
</svg>
