<?xml version="1.0" encoding="UTF-8"?>
<!DOCTYPE svg PUBLIC "-//W3C//DTD SVG 1.1//EN" "http://www.w3.org/Graphics/SVG/1.1/DTD/svg11.dtd">
<!-- Creator: CorelDRAW -->
<svg xmlns="http://www.w3.org/2000/svg" xml:space="preserve" width="8.972mm" height="8.972mm" version="1.1" style="shape-rendering:geometricPrecision; text-rendering:geometricPrecision; image-rendering:optimizeQuality; fill-rule:evenodd; clip-rule:evenodd"
viewBox="0 0 163.88 163.88"
 xmlns:xlink="http://www.w3.org/1999/xlink"
 xmlns:xodm="http://www.corel.com/coreldraw/odm/2003">
 <defs>
  <style type="text/css">
   <![CDATA[
    .fil0 {fill:#010201;fill-rule:nonzero}
    .fil1 {fill:white;fill-rule:nonzero}
   ]]>
  </style>
 </defs>
 <g id="Capa_x0020_1">
  <metadata id="CorelCorpID_0Corel-Layer"/>
  <g id="_2115567113856">
   <path class="fil0" d="M163.88 81.94c0,45.25 -36.69,81.94 -81.94,81.94 -45.25,0 -81.94,-36.69 -81.94,-81.94 0,-45.25 36.69,-81.94 81.94,-81.94 45.25,0 81.94,36.69 81.94,81.94z"/>
   <path class="fil1" d="M71.02 98.33l0 -32.78 28.38 16.39 -28.38 16.39zm63.27 -42.68c-1.26,-4.7 -4.96,-8.4 -9.66,-9.66 -8.52,-2.28 -42.68,-2.28 -42.68,-2.28 0,0 -34.17,0 -42.69,2.28 -4.7,1.26 -8.4,4.96 -9.66,9.66 -2.28,8.52 -2.28,26.3 -2.28,26.3 0,0 0,17.78 2.28,26.3 1.26,4.7 4.96,8.4 9.66,9.66 8.52,2.28 42.69,2.28 42.69,2.28 0,0 34.17,0 42.68,-2.28 4.7,-1.26 8.4,-4.96 9.66,-9.66 2.28,-8.52 2.28,-26.3 2.28,-26.3 0,0 0,-17.78 -2.28,-26.3z"/>
  </g>
 </g>
</svg>
